<?xml version="1.0" encoding="utf-8"?>
<!-- Generator: Adobe Illustrator 23.0.3, SVG Export Plug-In . SVG Version: 6.00 Build 0)  -->
<svg version="1.1" id="Layer_1" xmlns="http://www.w3.org/2000/svg" xmlns:xlink="http://www.w3.org/1999/xlink" x="0px" y="0px"
	 viewBox="0 0 300 300" style="enable-background:new 0 0 300 300;" xml:space="preserve">
<g>
	<path d="M254.9,272.9c-2.8-2.1-5.6-4.8-7-7.9c-2-4.2-3.3-8.9-4-13.6c-2.5-17.7-4.6-35.4-7-53.1c-0.3-2.4-1.3-5-2.7-7
		c-2.2-3.3-5.4-3.5-7.5,0c-3,5.1-5.8,10.4-8,15.9c-1.1,2.8-2,4.3-5.2,4.1c-14.8-0.9-28.2-5.2-39.6-15c-8.8-7.6-10.5-6.8-19.4,0.3
		c-8.9,7.1-19.1,12.1-31.1,11c-3.9-0.4-5.8-2.3-7.6-5.8c-4.1-7.7-8.7-15.1-13.9-22.1c-3.6-4.8-9.7-3.9-13.6,0.8
		c-3.5,4.2-4.8,8.9-3.4,14.3c1.1,3.9,2.7,7.7,3.1,11.6c1.5,18.6,0.4,37.1-3.2,55.4c-0.9,4.8-3.4,7.3-8.7,6.9
		c-5.8-0.4-8.2,3.1-5.7,8.3c1.1,2.3,3.3,4.4,5.6,5.5c5.2,2.6,7.8,6.6,6.7,12h7.3c1.6-8.9,3.2-17.8,4.9-27.1
		c3.9,6.4,3.8,16.7,1.5,27.1h38.8c0.4-3.5,1.1-7,2.3-10.3c3.1-9,1.5-15.1-5.5-21.6c-3.5-3.3-6.6-7.2-9.2-11.3
		c-3.3-5.3-2-8.7,3.7-11.3c6.3-2.8,12.6-5.7,19-8.3c6.5-2.6,13.4-4.4,19.7-7.6c3.7-1.9,5.8-1.7,8.4,1.3c2.1,2.4,4.7,4.5,7.4,6.2
		c7.8,4.6,16.1,8.5,23.5,13.5c4.6,3.1,9.6,7.2,7.2,14.4c-0.3,1,0.7,2.5,1.2,3.7c0.4-0.1,0.9-0.1,1.3-0.2c1.1-5.5,2.1-11.1,3.2-16.6
		c0.6,0.1,1.3,0.1,1.9,0.2c0.5,1.1,1.2,2.1,1.5,3.3c2.1,9.6,4,19.3,6.3,28.9c1.3,5.2,2.5,10.4,3.7,15.7h18.6c-0.4-4,1.4-6.5,6-9.8
		C260.2,281.3,259.8,276.5,254.9,272.9z"/>
	<path d="M123.4,87.8c1.8,1.2,4,2.4,4.9,4.1c6.2,11.8,6,24.2,1.7,36.4c-1.9,5.5-1.2,10.2,4.3,12.1c9.8,3.4,19.8,4.8,30.1,2.3
		c3.3-0.8,6.7-1.7,10.1-1.8c4.8-0.1,6.9-2.2,7-7c0.2-8,1-16,1.2-24c0.2-5.4,2.2-9.5,6.1-13.5c2.1-2.2,3.8-7.1,2.8-9.6
		c-4.5-11.9-13.5-20.4-28.9-16.7c-6.9,1.6-11.7-0.6-16.1-5.2c-1.6-1.7-3.3-3.5-4.6-5.4c-1.3-2-3.4-5.3-2.7-6.2
		c1.5-2.1,4.4-3.6,7-4.2c4.9-1.1,10-1.6,15.1-2.1c4.9-0.5,6.5-3.6,6.4-7.9c-0.1-4.4-3.5-6.1-7.1-6.1c-3.4,0-6.8,1.2-10.1,1.7
		c-6.1,1-12.4,4.1-18.2-0.9c-5.5,4.1-6.9,9.9-8.1,15.8c-1.8,9-3.5,18.1-5.6,27.1C117.6,81.7,119.2,85.1,123.4,87.8z M167.5,85
		c4.8-0.9,9.6-1.8,15.5-2.8c0.1,2.5,0.5,4.9,0.3,7.2c0,0.8-1.5,2.2-2,2.1c-4.7-1.3-9.3-2.9-14-4.4C167.4,86.5,167.4,85.8,167.5,85z
		 M152.4,38.4c2.2,0,4.4,0,6.6,0c-0.1,0.9-0.2,1.8-0.2,2.7c-2.1-0.2-4.3-0.3-6.4-0.5C152.4,39.8,152.4,39.1,152.4,38.4z"/>
	<path d="M206.4,279.9c-0.6,4.9-0.8,9.8-0.6,14.8h7.7c0.3-4.5,0.5-9,0.5-13.6c0-2-1.4-4.1-2.1-6.1
		C210,276.6,206.7,278.1,206.4,279.9z"/>
	<path d="M60.7,191.8c-3,13.5-0.7,26.2-0.1,38.8C68.3,218.3,68.8,197.4,60.7,191.8z"/>
	<path d="M187,52.6c1,0.5,2.6-0.3,3.9-0.5c-0.7-1.3-1.1-3.1-2.2-3.7c-4.3-2.1-6.5-4.1,0.1-7.9c-0.5-0.5-1-1-1.5-1.5
		c-2.9,0-5.9,0-8.8,0c0.4,3,0,6.5,1.4,8.9C181.3,50,184.5,51.4,187,52.6z"/>
	<path d="M172.2,65.9c2.9-2,6.7-3.3,7-5.2c0.6-3.5-2.8-5.8-6.1-4.9c-2.7,0.7-5,3.2-7.5,5C167.6,62.2,169.5,63.7,172.2,65.9z"/>
	<path d="M146.5,19c6.6-2.3,12.7-4.4,18.9-6.5C158.8,7,149.4,10.2,146.5,19z"/>
</g>
</svg>
