<?xml version="1.0" encoding="utf-8"?>
<!-- Generator: Adobe Illustrator 23.0.3, SVG Export Plug-In . SVG Version: 6.00 Build 0)  -->
<svg version="1.1" id="Layer_1" xmlns="http://www.w3.org/2000/svg" xmlns:xlink="http://www.w3.org/1999/xlink" x="0px" y="0px"
	 viewBox="0 0 300 300" style="enable-background:new 0 0 300 300;" xml:space="preserve">
<style type="text/css">
	.st0{fill:none;stroke:#000000;stroke-miterlimit:10;}
</style>
<g>
	<g>
		<path class="st0" d="M54.9,122.6c4.9-3.4,13-9.1,14.4-15.2c1.2-5.3,0.5-11.6,0.2-17c0-0.1,0-0.3,0-0.4c-9,0-17.9,0-26.9,0
			c-0.2-4.2,0.2-9.1-2.2-12.8c-1-1.5-3-3.3-5-3.1c-2.4,0.2-3.6,3-4.5,4.8c-2.5,4.7-3.6,9.6-4.1,14.8c-0.2,2.3-0.3,5.1-2,6.8
			c-1.4,1.5-4.3,2.3-5.8,0.6c0,2.5,0.7,5,2.4,6.9c1.1,1.3,3.6,2.1,4,3.8l-1.8,1c-0.1,5.8-0.2,11.6-0.1,17.4
			C34.6,131.1,45.5,129,54.9,122.6z M53.9,105.8c5.2,0,5.2,8.1,0,8.1S48.7,105.8,53.9,105.8z"/>
	</g>
	<g>
		<path class="st0" d="M89.2,119.9c9,5.6,19.8,6.5,30,7.4c0.7,0.1,1.2,0.4,1.5,0.8c1.9,0,3.8,0,5.7-0.1c-2.3-3.3-4.5-7.1-0.6-9.7
			c1.9-1.3,3.5-1.3,4.3-4c0.5-1.6-0.2-3.3,0.5-4.9c0.4-1,1-1.8,1.8-2.5c-2.7-0.6-4.1-1.3-3.5-2.1c1-1.5,2.8-2.9,2.2-5
			c-0.3-1.1-2-2.9-3.1-1.6c-0.4-4-0.1-7.9-0.2-11.9c-0.1-3.2,0.8-10.7-2.6-12.8c-3.7-2.2-10.4,4.6-13.1,6.5
			c-3.6,2.6-7.2,5.2-10.9,7.7C97.8,90,96.7,90,92.4,90c-3.6,0-7.2,0-10.7,0c-0.1,5.4-0.5,10.8-0.4,16.2
			C81.4,113.1,83.3,116.2,89.2,119.9z M94.5,105.8c5.2,0,5.2,8.1,0,8.1S89.3,105.8,94.5,105.8z"/>
	</g>
	<path class="st0" d="M137.6,107.8c-0.1,0.2-0.3,0.3-0.4,0.4c-4.1,3-1.6,8-5.2,11.2c-0.7,0.6-1.5,1.1-2.3,1.5
		c-1.3,0.7-1.6,0.3-1.5,1.5c0,1.7,2.9,5,3.7,6.4c0.8,1.4-0.3,2.9-1.8,3.1c-3.7,0.3-7.4,0.4-11.2,0.2c-0.8,0-1.3-0.4-1.6-1
		c-11.5-1.1-23.5-2.6-32.9-9.8c-3.5-2.7-6.5-5.7-7-10.2c-0.8-6.8,0.3-14.3,0.5-21.2c-0.8,0-1.6,0-2.4,0c-0.6,0-1.2,0-1.8,0
		c0,0.1,0.1,0.3,0.1,0.4c0.3,6.3,1.6,15.8-1.3,21.7c-2.4,4.9-8.8,9.1-13.1,12.3c-10.4,7.9-22.9,10.8-35.7,9.9
		c0.1,7.2,0.4,14.4,0.9,21.6c0.5,7.4,1.1,14.8,1.9,22.2c0.7,6.9,2.7,13.6,3.5,20.4c0.7,5.6,0.1,11.7,0.2,17.4
		c0,4.8,0.1,9.7,0.1,14.5c0,4.2,0.8,10,6.4,6.4c4.9-3.2,7.9-9.6,8.5-15.1c7.4,5.7,16,9.5,25.1,12c0,0.1,0,0.1,0,0.2
		c0.8,0.2,1.7,0.3,2.5,0.4c0.3,0.1,0.7,0.2,1,0.3v-0.1c8.8,1.4,17.6,1.9,26,1.8c0,3.1-1.8,16.6,4.2,14.7c5.3-1.7,8.1-10.4,8.3-15.2
		c3.2-0.2,9.5-1,9.5-1l0.1-0.1l70.9-5.6c0,0,9.8-1,14.7-1.6c0,4.6,0,9.2,0,13.8c0,1.6-0.5,3.8,1.2,4.7c1.4,0.7,3.5-0.1,4.7-0.8
		c2.9-1.7,4.8-5,6.5-7.9c2.4-4,4.4-8.1,6.3-12.3c9.5-1.7,18.9-4.3,27.3-9l-0.7,0.8c1.8,6.4,4.2,12.6,7.1,18.6c0.9,1.9,2,5.3,4.6,5.6
		c2.3,0.3,4.1-2.3,5-4.1c6.1-11.5,6.2-24.6,7.1-37.1c0.4-5.4,2.4-10.9,2.9-16.4c0.5-5.7,0.4-11.5-0.3-17.2
		c-1.3-11.6-5.1-22.7-11.5-32.1c-0.5-0.7-1-1.4-1.5-2.2c2.9-4.3,7.8-7.1,9.9-12c1.7-3.9,0.5-10.9-5.1-10.5c4.8-4.2,11.6-10.8,8-17.8
		c-2.5-4.9-9.6-7.5-14.4-4.3c-3.1-8.1,2.2-17.4-2-25.3c-1.6-2.9-4.2-4.6-7.5-4.3c-2.7,0.3-5.8,2-5.7,5.1
		C246,52.6,236.2,45,225.6,44.2c-0.1,0-0.2,0-0.3,0l0,0h-0.1c-0.4,0-0.7,0-1.1,0c0.1,0.1,0.1,0.1,0.2,0.2
		c-8.3,1.9-15.6,7.5-19.2,15.3c8.5-0.9,33,9.2,35.8,12.7c10.1,12.6,11.6,29.4,9.7,44.8c-13.2-8.8-43.9-8-43.9-8
		c-16.4-0.3-43.6-0.9-62.9-2.1 M52.1,134.7c-0.5-2.6,3.4-3.6,3.9-1.1c0.5,2.6,6.1,1.6,7.7,1.2c1-0.2,2-0.5,3-0.9s3.5-2.4,2.9-3.8
		c-0.8-0.4-1.4-1-1.6-1.9c-0.2-0.9,0-1.7,0.5-2.4c0.1-0.9,0.8-1.7,1.9-1.7c1.2,0,2.4,0,3.6,0c0.7,0,1.4,0,1.9,0.4
		c0.6,0.4,0.8,1.1,1,1.8c0.2,1.4-0.4,2.6-1.3,3.4c-0.9,4.6,3.6,5.1,6.9,5.5c1.3,0.1,9.3,0.6,8.5-2.1c-0.7-2.5,3.2-3.6,3.9-1.1
		c1.9,6.9-8.3,7.7-12.7,7.2c-4.5-0.5-8.3-1.6-10-4.3C67.5,140.5,53.6,141.9,52.1,134.7z"/>
</g>
</svg>
