<?xml version="1.0" encoding="utf-8"?>
<!-- Generator: Adobe Illustrator 23.0.3, SVG Export Plug-In . SVG Version: 6.00 Build 0)  -->
<svg version="1.1" id="Layer_1" xmlns="http://www.w3.org/2000/svg" xmlns:xlink="http://www.w3.org/1999/xlink" x="0px" y="0px"
	 viewBox="0 0 300 300" style="enable-background:new 0 0 300 300;" xml:space="preserve">
<path d="M296.8,116.7c-0.3-5.6,0.2-12.8-6.7-14.2c20.3-19.6-56-21.8-63.7-21.4c-11.5,0.6-67.8,3.1-65.8,18.8c-0.5,0.5-1,1-1.3,1.6
	c-4.8-0.7-9.8-1.1-14.6-1.6c2-16-58.2-18.5-69.6-18.8c-7-0.2-81.6,2.5-59.4,21.8c-16.3,4.1-13.4,43.8,5.1,34.3
	c3.6,42,29.9,69.4,74.7,54.5c18.6-6.2,29-17.7,36.5-35.3c5.9-13.8,13.9-27.4,16.5-42.3c2.7,0,5.5,0,8.2,0c0,12.6,13,35.9,18.9,48
	c8.7,17.7,23.5,27.8,42.6,31.8c44.8,9.3,63.5-20.2,66.5-60.9C297.3,133.9,297.4,127,296.8,116.7z M107.4,167.5
	c-15.1,14.4-49.6,18.7-63,0.3c-14.3-19.7-4.1-46.8-7.9-68.4c31.5-4.9,60.7-0.7,91.7,5.1C125.6,123.4,122.3,153.2,107.4,167.5z
	 M266.2,153.4c-5.6,28.3-38.2,32.9-60.7,19c-21.6-13.3-25.2-44.9-28.4-68c31-5.8,60.2-10,91.7-5.1
	C265.8,116.8,269.7,135.4,266.2,153.4z"/>
</svg>
