<?xml version="1.0" encoding="utf-8"?>
<!-- Generator: Adobe Illustrator 23.0.3, SVG Export Plug-In . SVG Version: 6.00 Build 0)  -->
<svg version="1.1" id="Layer_1" xmlns="http://www.w3.org/2000/svg" xmlns:xlink="http://www.w3.org/1999/xlink" x="0px" y="0px"
	 viewBox="0 0 300 300" style="enable-background:new 0 0 300 300;" xml:space="preserve">
<path d="M245.4,244.7c8.1,4.7,5.8,6.8-6.9,6c-12.3,2.5-13.8,5.8-4.3,9.9c0.3,0-124.4,47.3-118.6,17.3c11.5-1.5,73,3,74.9-14.6
	c2.2-19.9-48-7.7-50.5-17.8c15.5-5.8,2.9-3.1,10.8-13.6c-16.5-4.3-10.7-9.9-37.9-13.8c0,3,0.7,5.8,1.9,8.5
	c-38,2.2-24.7-37.5-13.6-34.6c1.1,31.7,22.5,27.5,53.5,18.2c0-5.3-37.4-5.4-41.8-9.5c14.2-8.9,39.8,5.5,37.6-17.2
	c-0.5-5.2-13.7-18.6-17.8-20c-16.4-5.7-14.4,6.2-27.5,13.4c-5.6-7.9,19.4-12.3,0.4-20c-7.3-2.9-15.8-5.3-23.6-3.9
	c-26.2,4.7-17.5,11.2-2.8,23.3c-10.8,2.4-18.9-9.8-24.7-16.4c0.6,8.4,1.1,16.7,1.7,25.1C24.1,140,17.1,72.7,65.2,35.5
	C107,3.1,175.3-1.3,217.4,31.9c37.3,29.5,72.7,94.3,38.8,137.9c-11.8,15.2-38,19.6-25.1,40.6C244.9,233,271.3,213,245.4,244.7z
	 M62.6,138.5c-2.9,21.4,10.4,5.1,19.5,4.6c15.5-0.7,30,1.6,44,1.4c5.8-0.1,45.4-9.3,50-12.9c-8.4-9.1-54.4-16-64.9-14.5
	C99.8,118.7,72.2,131.3,62.6,138.5z M150.4,176.7c4.5,14.7,22.6,11.1,29.9,21.6c7.4,10.7-1.9,21,2.5,30.1c5.7,11.9,24.1,23,29.2,2.6
	c3.8-15.2-13.2-15.9-13.5-17.1c-2.7-9.8,4.8-23.5,2.1-30.7C192.6,161.8,170.6,174,150.4,176.7z M189.3,157
	c0.7-11.1-42-13.6-45.9-2.8C133.9,179.9,193,178.6,189.3,157z"/>
</svg>
