<?xml version="1.0" encoding="utf-8"?>
<!-- Generator: Adobe Illustrator 23.0.3, SVG Export Plug-In . SVG Version: 6.00 Build 0)  -->
<svg version="1.1" id="Layer_1" xmlns="http://www.w3.org/2000/svg" xmlns:xlink="http://www.w3.org/1999/xlink" x="0px" y="0px"
	 viewBox="0 0 300 300" style="enable-background:new 0 0 300 300;" xml:space="preserve">
<style type="text/css">
	.st0{fill:none;stroke:#000000;stroke-miterlimit:10;}
</style>
<path class="st0" d="M251,28.1c-4.4-3.5-10-5.3-15.6-4.9c0,0-111.3,112.9-160.4,176.2c-1,1.3-2,2.7-2.1,4.3
	c-0.1,1.7,0.9,3.3,1.9,4.7c3.7,5.2,8.2,9.8,13.3,13.6c1.9,1.4,4,2.8,6.4,3.1c3.7,0.4,7.1-1.9,10.2-4.1
	C118,211.3,231,78.3,239.1,67.3c7.1-9.7,14.3-20.1,15.1-32.1C254.3,33.9,252.2,29,251,28.1z"/>
<g>
	<path class="st0" d="M51.8,256.4c0.9,1.8,1.9,3.6,3,5.4c11.9-7.5,22.9-16.3,32.9-26.1c0,0-21.8-26.9-21.9-25c0,0.2,0,0.3,0,0.5
		c-7.3,9.4-14.2,19.1-20.7,29C46.9,245.8,49.1,251.2,51.8,256.4z"/>
	<path class="st0" d="M48.2,262.4c-2.8-5-5.2-10.3-7.2-15.7c-5.8,9.1-11.4,18.5-16.6,28c5.6,0.6,11.1-1.9,16.1-4.5
		c3.1-1.6,6.2-3.4,9.3-5.2C49.2,264.1,48.7,263.2,48.2,262.4z"/>
</g>
</svg>
