<?xml version="1.0" encoding="utf-8"?>
<!-- Generator: Adobe Illustrator 23.0.3, SVG Export Plug-In . SVG Version: 6.00 Build 0)  -->
<svg version="1.1" id="Layer_1" xmlns="http://www.w3.org/2000/svg" xmlns:xlink="http://www.w3.org/1999/xlink" x="0px" y="0px"
	 viewBox="0 0 300 300" style="enable-background:new 0 0 300 300;" xml:space="preserve">
<g>
	<path d="M258.8,155.1c-4.4,0.2-8.2-2-12.6-2.4c2-4.9,7.8-13.1,7.7-18.1c0-0.9,0.8-1.9,0.8-2.5c-0.1-0.8-2.7-1.2-3-2
		c-1.8-4.6-1.6-9.7-5.5-13.8c-4.6-4.9-11.7-6.3-18.2-4.9c2.8-2.3,4.9-0.4,8.6-1.4c4.1-1.1,4.1-2.9,6.1-7.3c-3.5-1.6-3.2-7.5-6.4-8.6
		c-0.9-0.3-5.8,0.5-6.9,0.6c-3.4,0.3-6.9,0.8-11.3,0.1c-6.3-1-26.4-10.8-25.6,2.2c-1.3-0.7-4-2-5.5-2.2c-1.7-0.2-4.1,1.7-5.9,1.2
		c-2.5-0.7-5.4-5.5-7.8-7c-2.9-1.8-8-1.5-9.7-2.8c-1.1-0.8-2.3-5-3.2-6.1c-2.3-3.2-4.4-3.8-7.7-6c-5-3.4-9.3-8.3-13.5-12.6
		c0.3,0.6,0.6,1.2,0.9,1.7c-6,2.7-13-0.2-19.3,1.2c-7.7,1.8-15,7.3-21.2,11.8c-4.8,3.6-7.9,8.5-15.1,5.9c-0.9-0.3-2.3-0.7-3.1-1.4
		c-3.8-3.3-1.4-3.5-5.5-5c-11.4-4-21.1,8.6-30,12.2c-4,1.6-5.2,1.8-7.7,5c-2.1,2.7-7.7,10.4-8.7,14.4c-1.2,4.9-0.3,8.1-3.2,12.6
		c-2.7,4.2-6.1,8.4-8.8,13.5C11.4,145,0,162.6,1.6,176.1c1.5,12.6,23.2,21.6,26.4,5.1c1.3,1.7,2.5,3.8,4,4.1
		c-4.1,7.7,0.5,32.1,13.4,25.8c0.2,0.9,0.3,1.8,0.5,2.7c4.4-2.2,8.5-4.9,12.8-7.3c4.2-2.4,11.3-4.2,14.7-6.7c4.6-3.4,3.8-6,10.6-7.3
		c7.4-1.4,12.6,3.6,19.1,7.5c0.4-1.1,0.8-3.4,1.7-4.2c4.2-3.6,0.3-3.9,5.7-3c2.6,0.4,7.3,3.4,8.6,4.7c1.3,1.4,2.4,4.3,4.2,6
		c2,1.9,4.6,3,6.7,4.7c3.4,2.7,7.5,8.8,12.5,7.4c6.9-1.9,7.4-7.9,10.9-13.9c1.6-2.8,0.4-3.6,4.3-5.4c-1.1-0.7-1.7-2.1-2.8-2.8
		c3.9-0.8,10.1-6.5,13-3.5c0.4-7.9,15.2-12.1,21.2-13.4c3.2-0.8,6.1-2.8,9.8-3c1-0.1,2.6,0,3.3-0.2c0.6-0.1,1.6,1.2,2.2,1.1
		c0.8-0.2,1.7-2.3,3-2.8c8.2-2.9,14.7-5.3,22.2-3.8C241,170.3,262.3,171.9,258.8,155.1z M219.1,117.8c-3.3-0.3-4.7-1-7.8-3
		c3.5,1,6.6-1.2,9.8,0.3C220.5,116,219.8,116.9,219.1,117.8z M206.7,110.7c0.4,0.8,0.9,1.5,1.5,2.2c-2.5-1.4-3.4-0.9-4-3.1
		C205.2,109.9,205.8,110.5,206.7,110.7z M198.9,106.9C198.9,106.3,198.9,106.5,198.9,106.9z M64.8,173.3c1.5-1.9,0.2-2.3,3.7,0.3
		C67.3,173.5,66,173.4,64.8,173.3z M76.2,177c2-0.3,5.8-0.1,8.2,0.2c-1.3,1.3-2.2,2.8-2.9,4.4C80,179.9,78.2,178.4,76.2,177z
		 M139.5,215C139.5,212.6,139.5,215,139.5,215z M139.5,212.6C139.5,211.5,139.5,211.4,139.5,212.6z"/>
	<path d="M298.1,101.1c-5.5-10.2-15-13.3-25.8-14.1c1.4,0.1-5.6-0.8-6-0.7c0,0-3.6,4.2-3.5,4.2c-0.2,0.1-6.6,1.4-6.8,1.5
		c-3.1,0.8-2.2-1.6-5.7,1.8c-3.1,3.1-2.7,7.6,0.1,10.6c2.8,3,7.9,5.8,10.5,8.7c2.9,3.4,5.2,9.6,9.4,12c4.6,2.7,4.5,0.2,8.4-2.3
		c3.8-2.3,7.7-1.1,11.2-2.8C295.1,117.4,300.5,107,298.1,101.1z"/>
</g>
</svg>
