<?xml version="1.0" encoding="utf-8"?>
<!-- Generator: Adobe Illustrator 23.0.3, SVG Export Plug-In . SVG Version: 6.00 Build 0)  -->
<svg version="1.1" id="Layer_1" xmlns="http://www.w3.org/2000/svg" xmlns:xlink="http://www.w3.org/1999/xlink" x="0px" y="0px"
	 viewBox="0 0 300 300" style="enable-background:new 0 0 300 300;" xml:space="preserve">
<style type="text/css">
	.st0{fill:none;stroke:#000000;stroke-miterlimit:10;}
</style>
<path class="st0" d="M284.8,104.3h-3.4c-0.7,0-1.7-0.1-3.1-0.2c-1.5-0.1-2.6-0.2-3.3-0.2h-0.8c-3.8,0.2-6.7,0.3-8.6,0.4h-0.7v0.1
	c-0.7-0.1-2.3-0.2-6-0.3c-3.3-0.1-5.3-0.2-5.7-0.3c-0.7-0.1-1.8-0.2-1.8-0.8c0,0,0-0.2,0.3-0.5c1.8-2.1,3-3.6,3.6-4.5
	c1.2-1.9,2.4-3.3,3.4-4.1c0.6-0.4,1.3-1.4,2.2-2.8c1.2-1.9,1.4-2.6,1.4-3s-0.2-1.4-1.9-1.4c-0.4,0-0.8,0-1.4,0.1
	c-0.8,0.1-1.7,0.7-2.7,1.9l-1.9,2.4c-2.4,2.7-4.2,5.1-5.2,7.1c-1.1,2.1-2.4,3.8-4.1,5.2c-0.2,0.2-0.9,0.5-2.4,0.5h-4.6
	c-0.6,0-1.6,0.1-2.8,0.2s-2.1,0.2-2.7,0.2c-4.9,0-6,0.1-6.3,0.2c-0.8,0.2-1.2,0.7-1.2,1.4c0,0.3,0.1,0.9,0.9,1.3
	c0.3,0.2,1.2,0.3,5.3,0.3h5.2c0.3,0,0.9,0,1.7,0c0.7,0,1.3,0,1.6,0c0.4,0,0.9,0.1,1.5,0.2c0.7,0.1,1.2,0.2,1.5,0.2c0,0,0,0.2-0.5,1
	c-3.2,4.8-6,8.2-8.4,9.9c-1.4,1.2-2.6,2.2-3.7,3.1c-3.1,2.5-6.1,4.8-8.9,6.9c-1.9,1.4-3.7,2.1-5.5,2.1c-0.2,0-0.4,0-0.6-0.1
	c0.2-0.4,1-1.4,4-4.5c2.9-3,4.3-5.2,4.3-6.7c0-0.9-0.4-1.8-1.1-2.7c-0.8-0.9-1.6-1.4-2.6-1.4c-2,0-4.4,0.8-7,2.5
	c-1.9,1.2-2.9,1.8-3.4,2.1c0.1-0.1,0.1-0.2,0.2-0.4c0.5-0.7,0.7-1.2,0.7-1.7c0-0.6-0.3-1.3-0.8-1.9c-0.7-0.9-1.5-1.2-2.4-1
	c1.2-1.5,2.5-3.1,3.7-4.8c0.9-1.3,3-4.5,6.2-9.5c2.6-4,4.5-7,5.8-9.1c1.2-1.3,3.2-2.9,5.9-4.7c1.4-0.9,3.6-2.6,6.5-4.8
	c-0.1,0.4-0.2,0.7-0.2,0.9c0,2.3,1,5.1,6,5.1c1.6,0,3.4-0.7,5.6-2.1c2.1-1.4,3.6-2.8,4.4-4.2c0.4-0.7,0.7-0.9,0.9-1.1
	c0.2,0.2,0.5,0.3,0.9,0.6c0.8,0.6,1.8,0.9,3,0.9c0.5,0,1-0.1,1.4-0.2c0.9-0.3,2.5-1.3,4.8-3.2c3.5-2.7,4-3.6,4-4.2s-0.4-0.9-1-0.9
	c-0.3,0-0.6,0-3.8,2.6c-2.4,2-3.7,2.4-4.4,2.4c-1.3,0-1.3-0.6-1.3-0.9c0,0,0-0.2,0.5-0.9c0.5-0.7,0.7-1.4,0.7-2.3v-2.9
	c0-0.3-0.2-0.9-2.1-3.6c-0.9-1.2-2.6-1.3-4.7-0.2c-0.9,0.5-1.7,1-2.5,1.4c-2.5,1.2-4.8,2.9-6.8,5.1c-8.3,6.4-11.9,9-13.4,10
	c0.8-1.6,1.6-3,2.2-4.1c0.7-1.1,1.9-2.6,3.6-4.5c0.5-0.5,1.2-1.4,2.1-2.9c1.2-2,1.4-2.7,1.4-3.1c0-0.8-0.3-2-2.6-2
	c-1.2,0-2.3,0.5-3,1.4s-1,1-1,1s-0.1-0.1-0.1-0.4c-0.3-0.7-0.9-1.5-2.5-1.5c-2,0-4.4,0.9-7.3,2.6c-7,2.7-14,5.4-21,8.1
	c-3.6,1.4-4.9,3.1-10.9,4s-10.3-0.6-11.4-0.6c-0.5,0-0.9-0.2-0.9-1c0-0.6,0.3-1.4,1-2.3c1.3-1.7,1.6-2.3,1.7-2.6
	c0.5-1.1,0.9-2,1.1-2.6c1.5-2.5,2.7-4.3,3.7-5.5c4.5-7.3,7.1-8.9,8.5-8.9h2.7c1.1,0,2.9,0,5.1,0c2.3,0,4,0,5.2,0h2.2
	c1.4,0,2.6,0,3.4,0c1.3,0,2,0,2.1,0h0.5c0.6,0,1.4,0,2.4-0.1c4.3-0.2,7.6-0.2,9.8-0.2c2-0.1,2.4-1,2.4-1.7c0-0.4-0.2-1.1-1.7-1.1
	h-3.4c-0.7,0-1.7-0.1-3.1-0.2c-1.5-0.1-2.6-0.2-3.3-0.2h-0.8c-3.8,0.2-6.7,0.3-8.6,0.4H206v0.1c-0.7-0.1-2.3-0.2-6-0.3
	c-3.3-0.1-5.3-0.2-5.7-0.3c-0.7-0.1-1.8-0.2-1.8-0.8c0,0,0-0.2,0.3-0.5c1.8-2.1,3-3.6,3.6-4.5c1.2-1.9,2.4-3.3,3.4-4.1
	c0.6-0.4,1.3-1.4,2.2-2.8c1.2-1.9,1.4-2.6,1.4-3s-0.2-1.4-1.9-1.4c-0.4,0-0.8,0-1.4,0.1c-0.8,0.1-1.7,0.7-2.7,1.9l-1.9,2.4
	c-2.4,2.7-4.2,5.1-5.2,7.1c-1.1,2.1-2.4,3.8-4.1,5.2c-0.2,0.2-0.9,0.5-2.4,0.5h-4.6c-0.6,0-1.6,0.1-2.8,0.2
	c-1.2,0.1-2.1,0.2-2.7,0.2c-4.9,0-6,0.1-6.3,0.2c-0.8,0.2-1.2,0.7-1.2,1.4c0,0.3,0.1,0.9,0.9,1.3c0.3,0.2,1.2,0.3,5.3,0.3h5.2
	c0.3,0,0.9,0,1.7,0c0.7,0,1.3,0,1.6,0c0.4,0,0.9,0.1,1.5,0.2c0.7,0.1,1.1,0.2,1.5,0.2c0,0,0,0.2-0.5,1c-3.2,4.8-6,8.2-8.4,9.9
	c-0.9,0.8-1.8,1.5-2.6,2.2c-0.5,0.3-1.4,1-3,2.3c-2.4,2-3.7,2.4-4.4,2.4c-1.3,0-1.3-0.6-1.3-0.9c0,0,0-0.2,0.5-0.9s0.7-1.4,0.7-2.3
	v-2.9c0-0.3-0.2-0.9-2.1-3.6c-0.9-1.2-2.6-1.3-4.7-0.2c-0.9,0.5-1.7,1-2.5,1.4c-2.4,1.1-4.6,2.8-6.6,4.9c-3.4,2.7-6.7,5.3-9.8,7.5
	c-1.9,1.4-3.7,2.1-5.5,2.1c-0.2,0-0.4,0-0.6-0.1c0.2-0.4,1-1.4,4-4.5c2.9-3,4.3-5.2,4.3-6.7c0-0.9-0.4-1.8-1.1-2.7
	c-0.8-0.9-1.6-1.4-2.6-1.4c-2,0-4.4,0.8-7,2.5c-1.9,1.2-2.9,1.8-3.4,2.1c0.1-0.1,0.1-0.2,0.2-0.4c0.5-0.7,0.7-1.2,0.7-1.7
	c0-0.6-0.3-1.3-0.8-1.9c-0.3-0.4-0.6-0.7-1-0.9c-0.2-1-1.5-1.8-2.6-0.9c-4.7,4-9.6,8.3-15.5,10.2c-1.8,0.6-6.7,1.4-11.5,1.4
	s-5.8-1-6.5-1.5l0,0c0.5-0.7,0.7-1.4,0.7-2.3v-2.9c0-0.3-0.2-0.9-2.1-3.6c-0.9-1.2-2.6-1.3-4.7-0.2c-0.9,0.5-1.7,1-2.5,1.4
	c-2.6,1.2-5,3.1-7.2,5.5c-0.1,0.1-0.1,0.1-0.2,0.2c-0.9,0.7-2.3,1.7-4.2,3.2c-4.9,3.9-6.6,4.4-7.2,4.4c-0.7,0-1.4-0.2-1.4-1.7
	c0-0.5,0.4-1.8,3.3-5.7c1.8-2.5,3.4-4.4,4.6-5.8c3-3.2,4.7-5.4,5.1-6.6c0.4-1.1,1.6-2.7,3.7-4.8c2.3-3.4,4-6.2,5.2-8.4
	c1.7-2.7,3.2-5,4.4-6.9c0.1-0.3,0.5-0.9,1.6-2.6c1.1-1.7,1.3-2.3,1.3-2.7c0-2.3-1.1-2.8-2-2.8c-0.3,0-0.7,0-4.7,3.7
	c-0.9,0.9-1.8,2-2.6,3.3c-0.7,1.3-1.5,2.5-2.1,3.7c-5.6,8.8-9.9,15.4-12.9,19.8c-1.5,2.4-2,3.2-2.1,3.5c-0.2,0.3-0.5,0.6-0.7,0.6
	c0,0-0.3-0.1-1.3-1.1c-1-0.9-1.8-1.3-2.7-1.3c-1.9,0-4.6,1.1-8,3.3c-3.1,2-5.3,3.9-6.7,5.6c-2.9,3.4-4.2,6-4.2,7.9s1,4.2,6.1,4.2
	c1.7,0,3.8-0.6,6-1.9c1.7-0.9,2.5-1.4,2.9-1.6c0.1,0.8,0.5,1.4,1.2,2c1.8,1.4,4.2,1.1,7.3-0.4c0.9-0.4,2.6-1.6,5.2-3.6
	c-0.1,0.3-0.1,0.5-0.1,0.7c0,2.3,1,5.1,6,5.1c1.6,0,3.4-0.7,5.6-2.1c2.1-1.4,3.6-2.8,4.4-4.2c0.4-0.7,0.7-0.9,0.9-1.1
	c0.2,0.2,0.5,0.3,0.9,0.6c0.8,0.6,1.8,0.9,3,0.9c0.5,0,1-0.1,1.4-0.2c0.3-0.1,0.8-0.3,1.4-0.7c3.1,0.3,6.6,0,9.1-0.2
	c4.6-0.3,13.8-2.7,17.5-5.7c0.9-0.7,1.5-1.2,2-1.6c0,0.1-0.1,0.1-0.1,0.2c-0.9,1.3-1.4,2-1.5,2.2c-2.2,3-3.9,5.3-5.1,6.7
	c-0.6,0.7-0.9,1.4-0.9,1.9c0,1.4,1.2,2,3.6,2c0.9,0,1.6-0.4,2.1-1.2c1.8-2.8,3.3-4.8,4.4-6.2c1.4-1.9,2.9-3.4,4.6-4.4
	c1.1-0.7,2.1-1.5,3.2-2.1c1.3-0.9,2.3-1.3,3.2-1.3c0.8,0,1,0.2,1,0.1c-0.1,0.2-0.5,1-4.4,4.9c-4.2,4.2-4.7,5.8-4.7,6.6
	c0,0.5,0.2,1,0.5,1.3c1.3,1.8,2.4,2.6,3.6,2.6c0.9,0,2.8-0.5,6-1.7c1.4-0.5,3.1-1.6,5.1-3.1c0.4-0.3,0.8-0.6,1.1-0.9
	c-0.1,0.4-0.1,0.6-0.1,0.9c0,2.3,1,5.1,6,5.1c1.6,0,3.4-0.7,5.6-2.1c2.1-1.4,3.6-2.8,4.4-4.2c0.4-0.7,0.7-0.9,0.9-1.1
	c0.2,0.2,0.5,0.3,0.9,0.6c0.3,0.2,0.7,0.4,1.1,0.5c-1.3,0.2-2.6,1.1-4.1,3l-5.9,6.7c-4.5,5.7-7.4,9.6-8.6,11.6
	c-0.3,0.5-0.6,1-0.9,1.5c-0.9,0-2.2-0.1-3.8-0.1c-3.3-0.1-5.3-0.2-5.7-0.3c-0.7-0.1-1.8-0.2-1.8-0.8c0,0,0-0.2,0.3-0.5
	c1.8-2.1,3-3.6,3.6-4.5c1.2-1.9,2.4-3.3,3.4-4.1c0.6-0.4,1.3-1.4,2.2-2.8c1.2-1.9,1.4-2.6,1.4-3s-0.2-1.4-1.9-1.4
	c-0.4,0-0.8,0-1.4,0.1c-0.8,0.1-1.7,0.7-2.7,1.9l-1.9,2.4c-2.4,2.7-4.2,5.1-5.2,7.1c-1.1,2.1-2.4,3.8-4.1,5.2
	c-0.2,0.2-0.8,0.5-2.4,0.5h-4.6c-0.6,0-1.6,0.1-2.8,0.2c-1.2,0.1-2.1,0.2-2.7,0.2c-4.9,0-6,0.1-6.3,0.2c-0.8,0.2-1.2,0.7-1.2,1.4
	c0,0.3,0.1,0.9,0.9,1.3c0.3,0.2,1.2,0.3,5.3,0.3h5.2c0.3,0,0.9,0,1.7,0c0.7,0,1.3,0,1.6,0c0.4,0,0.9,0.1,1.5,0.2
	c0.7,0.1,1.1,0.2,1.5,0.2c0,0,0,0.2-0.5,1c-3.2,4.8-6,8.2-8.4,9.9c-1.4,1.2-2.6,2.2-3.7,3.1c-3,2.4-5.9,4.6-8.6,6.6
	c-0.1-0.1-0.2-0.2-0.3-0.4c-0.6-0.6-1.2-0.9-1.8-0.9h-0.7c-0.1,0-0.3,0-0.9,0.5c0.4-0.4,0.8-0.9,1.4-1.5c2.9-3,4.3-5.2,4.3-6.7
	c0-0.9-0.4-1.8-1.1-2.7c-0.8-0.9-1.6-1.4-2.6-1.4c-2,0-4.4,0.8-7,2.5c-1.9,1.2-2.9,1.8-3.4,2.1c0.1-0.1,0.1-0.2,0.2-0.4
	c0.5-0.7,0.7-1.2,0.7-1.7c0-0.6-0.3-1.3-0.8-1.9c-1-1.3-2.1-1.4-3.7-0.4c-1.4,1.2-2.4,2.1-2.9,2.8c-2.9,2.7-4.8,4.3-5.4,4.8
	c-0.2,0.1-0.3,0.3-0.4,0.4c-3.5,2.8-5.9,4.5-7.1,5.1c-2.4,1.3-4.5,1.9-6.2,1.9c-1.9,0-1.9-0.7-1.9-0.9c0,0,0-0.4,0.7-1.9
	c0.1-0.2,0.1-0.3,0.1-0.4c0.1,0,0.2-0.1,0.4-0.2c1.8-0.6,4.1-1.9,6.8-3.9c2.8-2.1,4.2-4.4,4.2-7c0-1.4-0.7-2.2-2-2.2
	c-0.6,0-1.8,0.2-5.4,2.3c-1.9,1.1-3.6,2.4-5,4.1c-1.4,1.5-2.7,3.1-3.9,4.6c-5,3.8-7.4,5.6-8.6,6.4c0.8-1.7,1.6-3,2.2-4.1
	c0.7-1.1,1.9-2.6,3.6-4.5c0.5-0.5,1.2-1.4,2.1-2.9c1.2-2,1.4-2.7,1.4-3.1c0-0.8-0.3-2-2.6-2c-1.2,0-2.3,0.5-3,1.4s-1,1-1,1
	s-0.1-0.1-0.1-0.4c-0.3-0.7-0.9-1.5-2.5-1.5c-2.2,0-5,1.1-8.4,3.3c-2.5,1.7-4.9,3.6-7,5.7c-1.2,1.2-1.9,2.8-1.9,4.6
	c0,1.2,0.4,2.5,1.2,3.7c0.9,1.3,1.9,1.9,3.2,1.9c1.4,0,3.2-0.5,5.1-1.4c0.5-0.2,0.8-0.4,1.2-0.6c-0.3,0.6-0.7,1.4-1.2,2.4
	c-1,2.3-2.9,4.4-5.4,6.4c-0.6,0.5-1.9,1.6-3.6,3.3c-1.4,1.3-2.6,2.4-3.7,3.1c-2.3,1.9-4,3.4-5,4.5c-3.1,2.8-5.4,5.3-6.8,7.3
	c-2,3-3,6.3-3,9.6c0,2.2,1.2,2.5,2,2.5c2.3,0,5.3-1.8,9.3-5.6c2.4-2.2,4.8-5.2,7.3-8.7c0.9-1.3,3-4.5,6.2-9.5c2.6-4,4.5-7,5.8-9.1
	c1.2-1.3,3.2-2.9,5.9-4.7c1.2-0.8,2.8-2,5-3.6c0.3,2.6,1.9,4,4.8,4c3.6,0,7.2-1.1,10.8-3.2c2.4-1.4,5.4-3.7,9-6.8
	c0.8-0.7,1.4-1.2,1.7-1.6c0.7-0.6,1.2-1,1.7-1.4c0,0.1-0.1,0.1-0.1,0.2c-0.9,1.3-1.4,2-1.5,2.2c-2.2,3-3.9,5.3-5.1,6.7
	c-0.6,0.7-0.9,1.4-0.9,1.9c0,0.9,0.5,1.5,1.6,1.8c-0.1,0-0.2,0-0.3,0c-0.4,0-0.8,0-1.4,0.1c-0.8,0.1-1.7,0.7-2.7,1.9l-1.9,2.4
	c-2.4,2.7-4.2,5.1-5.2,7.1c-1.1,2.1-2.4,3.8-4.1,5.2c-0.2,0.2-0.8,0.5-2.4,0.5h-4.6c-0.6,0-1.6,0.1-2.8,0.2
	c-1.2,0.1-2.1,0.2-2.7,0.2c-5.5,0-6.1,0.1-6.3,0.2c-0.8,0.2-1.2,0.7-1.2,1.4c0,0.3,0.1,0.9,0.9,1.3c0.3,0.2,1.2,0.3,5.3,0.3h5.2
	c0.3,0,0.9,0,1.7,0c0.7,0,1.3,0,1.6,0c0.4,0,0.9,0.1,1.5,0.2c0.7,0.1,1.1,0.2,1.5,0.2c0,0,0,0.2-0.5,1c-3.2,4.8-6,8.2-8.4,9.9
	c-3.1,2.6-5.4,4.5-6.8,5.9c-0.8,0.6-1.2,1-1.2,1.3c0,0.4,0.2,0.8,1.4,0.8c0.4,0,1.1-0.1,2.7-1.4c0.4-0.3,0.7-0.6,1-0.7
	c-0.4,0.6-0.7,1.2-1.1,1.8c-1.7,2.8-1.9,3.8-1.9,4.3c0,1.1,0.5,2,1.5,2.8s2,1.1,3,1.1c0.4,0,1.3-0.2,2.5-0.5
	c1.7-0.4,2.2-0.7,2.3-0.9c1.5-0.8,2.7-1.4,3.6-1.8c2.5-1.9,4.6-3.5,6.3-4.8c0.1,0,0.2-0.1,0.2-0.1c-0.2,0.5-0.8,1.3-2,2.6
	c-1.7,1.8-2.5,3.1-2.5,4c0,1.9,1.3,2.1,1.8,2.1c1.6,0,3.4-0.7,5.4-2c0.9-0.6,1.5-1.3,1.8-2.1l0.6-1.9v-0.1c1-2.2,1.8-3.8,2.3-5
	c0.5-1.1,1.3-2.1,2.3-3c2.6-1.8,4.6-3.1,6.1-3.9c1.9-1,2.3-1.2,2.4-1.2c0.2,0,0.3,0,0.3,0.4c0,0.1-0.2,0.8-2,3.7
	c-2,2.7-3.5,4.7-4.6,5.9c-1.2,1.3-1.7,2.4-1.7,3.3c0,0.6,0.2,1.2,0.5,1.9c0.7,1.4,1.2,2.2,1.8,2.5c0.5,0.4,1.5,0.5,3.1,0.5
	c2.4,0,4.6-0.7,6.7-2c1.5-1.1,2.7-2.1,3.9-3c-0.5,0.5-0.5,1.1-0.5,1.8c0,1.7,1.5,2.6,4.5,2.6c1.6,0,3.1-0.4,4.3-1.2
	c1.8-1.1,2.5-1.4,2.7-1.4c0.1,0.1,0.3,0.4,0.7,1c0.6,1,1.5,1.6,2.7,1.6c0.7,0,1.6-0.2,2.7-0.5c1.2-0.4,3.5-1.9,7-4.8
	c1.7-1.3,3-2.5,4.2-3.5c0.2-0.2,0.4-0.3,0.6-0.5c-0.4,0.6-0.7,1.2-1.1,1.8c-1.7,2.8-1.9,3.8-1.9,4.3c0,1.1,0.5,2,1.5,2.8
	s2,1.1,3,1.1c0.4,0,1.3-0.2,2.5-0.5c1.7-0.4,9-2.5,9.9-2.9c0,0,18.9-6.1,30-10.6c-1.5,1.2-2.9,2.4-4.2,3.7c-1.2,1.2-1.9,2.8-1.9,4.7
	c0,1.2,0.4,2.5,1.2,3.7c0.9,1.3,1.9,1.9,3.2,1.9c1.4,0,3.2-0.5,5.1-1.4c0.5-0.2,0.8-0.4,1.2-0.6c-0.3,0.6-0.7,1.4-1.2,2.4
	c-1,2.3-2.8,4.4-5.4,6.4c-0.6,0.5-1.9,1.6-3.6,3.3c-1.4,1.3-2.6,2.4-3.7,3.1c-2.3,1.9-4,3.4-5,4.5c-3.1,2.8-5.4,5.3-6.8,7.3
	c-1.6,2.4-2.5,4.9-2.8,7.4c-1.9,1.4-3.6,2.9-5.2,4.5c-6,4.6-7.5,5.1-7.9,5.1c-0.3,0-0.9,0-0.9-0.3c0-0.6,0.4-2,2.6-5.2
	c1.4-2.1,2.7-3.9,3.8-5.2c0.7-0.7,1-1.5,1-2.2c0-1.4-0.8-2.2-2.4-2.2c-1,0-2.2,1-3.8,3.3c-1.6,2.2-2.4,3.2-2.8,3.7
	c-3.4,2.7-6.6,5.2-9.6,7.4c-1.9,1.4-3.7,2.1-5.5,2.1c-0.2,0-0.4,0-0.6-0.1c0.2-0.4,1-1.5,4-4.5c2.9-3,4.3-5.2,4.3-6.7
	c0-0.9-0.4-1.8-1.1-2.7c-0.8-0.9-1.6-1.4-2.6-1.4c-2,0-4.4,0.8-7,2.5c-1.9,1.2-2.9,1.8-3.4,2.1c0.1-0.1,0.1-0.2,0.2-0.4
	c0.5-0.7,0.7-1.2,0.7-1.7c0-0.6-0.3-1.3-0.8-1.9c-1-1.3-2.1-1.4-3.7-0.4c-1.4,1.2-2.4,2.1-2.9,2.8c-3,2.7-4.8,4.3-5.4,4.8
	c-0.8,0.7-1.2,1.1-1.2,1.5c0,1.1,0.7,1.2,0.9,1.2c0.3,0,0.6,0,4.3-3c0.8-0.7,1.5-1.2,2-1.6c0,0.1-0.1,0.1-0.1,0.2
	c-0.9,1.3-1.4,2-1.5,2.2c-2.2,3-3.9,5.3-5.1,6.7c-0.6,0.7-0.9,1.4-0.9,1.9c0,1.4,1.2,2,3.6,2c0.9,0,1.6-0.4,2.1-1.2
	c1.8-2.8,3.3-4.8,4.4-6.2c1.4-1.9,2.9-3.4,4.6-4.4c1.1-0.7,2.1-1.5,3.2-2.1c1.3-0.9,2.4-1.3,3.2-1.3s1,0.2,1,0.1
	c-0.1,0.2-0.5,1-4.4,4.9c-4.2,4.2-4.7,5.8-4.7,6.6c0,0.5,0.2,1,0.5,1.3c1.3,1.8,2.4,2.6,3.6,2.6c0.5,0,1.8-0.2,6-1.7
	c1.4-0.5,3.1-1.6,5.1-3.1c0.7-0.5,1.3-1,1.9-1.5c-0.5,0.7-0.5,0.7-0.5,0.8c-0.5,0.8-0.8,1.6-0.8,2.2c0,0.9,0.4,1.7,1.2,2.4
	c0.7,0.7,1.5,1,2.4,1s2.2-0.3,3.9-1c1.6-0.6,3.9-2.1,6.7-4.4c0.1-0.1,0.3-0.2,0.4-0.3c0,1.2,0.5,2.3,1.2,3.4
	c0.9,1.3,1.9,1.9,3.2,1.9c1.4,0,3.2-0.5,5.1-1.4c0.5-0.2,0.8-0.4,1.2-0.6c-0.3,0.6-0.7,1.4-1.2,2.4c-1,2.3-2.9,4.4-5.4,6.4
	c-0.6,0.5-1.9,1.6-3.6,3.3c-1.4,1.3-2.6,2.4-3.7,3.1c-2.3,1.9-4,3.4-5,4.5c-3.1,2.8-5.4,5.3-6.8,7.3c-2,3-3,6.3-3,9.6
	c0,2.2,1.2,2.5,2,2.5c2.3,0,5.3-1.8,9.3-5.6c2.4-2.2,4.8-5.2,7.3-8.7c0.9-1.3,3-4.5,6.2-9.5c2.6-4,4.5-7,5.8-9.1
	c1.2-1.3,3.2-2.9,5.9-4.7c1.7-1.1,4.4-3.1,7.9-6c0.5-0.4,1-0.8,1.5-1.2c0.2-0.1,0.3-0.2,0.4-0.2c-0.2,0.5-0.8,1.3-2,2.6
	c-1.7,1.8-2.5,3.1-2.5,4c0,1.9,1.3,2.1,1.8,2.1c1.6,0,3.4-0.7,5.4-2c0.9-0.6,1.5-1.3,1.8-2.1l0.7-2c1-2.2,1.8-3.8,2.3-5
	c0.5-1.1,1.3-2.1,2.3-3c2.6-1.8,4.6-3.1,6.1-3.9c1.9-1,2.3-1.2,2.4-1.2c0.2,0,0.3,0,0.3,0.4c0,0.1-0.2,0.8-2,3.7
	c-2,2.7-3.5,4.7-4.6,5.9c-1.2,1.3-1.7,2.4-1.7,3.3c0,0.6,0.2,1.2,0.5,1.9c0.7,1.4,1.2,2.2,1.8,2.5c0.5,0.3,1.5,0.5,3.1,0.5
	c2.4,0,4.6-0.7,6.7-2c3.5-2.6,6-4.6,7.6-6.1c0.5-0.4,1-0.9,1.6-1.4c0.1-0.1,0.2-0.2,0.3-0.3c-0.4,0.6-0.7,1.2-1.1,1.8
	c-1.7,2.8-1.9,3.8-1.9,4.3c0,1.1,0.5,2,1.5,2.8s2,1.1,3,1.1c0.4,0,1.3-0.2,2.5-0.5c1.7-0.4,2.2-0.7,2.3-0.9c1.5-0.8,2.7-1.4,3.6-1.8
	c4-3,7.1-5.4,9.1-7.2c2.1-1.9,2.3-2.4,2.3-2.8c0-0.6-0.4-0.9-0.9-0.9c-0.3,0-0.4,0-7,5c-5.2,4-7.7,4.8-8.8,4.8c-0.5,0-0.9-0.2-0.9-1
	c0-0.6,0.3-1.4,1-2.3c0.9-1.3,1.5-2.1,1.7-2.6c0.5-1.1,0.9-2,1.1-2.7c1.5-2.5,2.7-4.3,3.7-5.5c4.5-7.3,7.1-8.9,8.5-8.9h2.7
	c1.1,0,2.9,0,5.1,0c2.3,0,4,0,5.2,0h2.2c1.4,0,2.6,0,3.4,0c1.3,0,2,0,2.1,0h0.5c0.6,0,1.4,0,2.4-0.1c4.3-0.2,7.6-0.2,9.8-0.2
	c2-0.1,2.4-1,2.4-1.7c0-0.4-0.2-1.1-1.7-1.1h-3.4c-0.7,0-1.7-0.1-3.1-0.2c-1.5-0.1-2.6-0.2-3.3-0.2h-0.8c-3.8,0.2-6.7,0.3-8.6,0.4
	H226v0.1c-0.5-0.1-1.6-0.1-3.9-0.2l-2.1-0.1c-4.2-0.1-5.4-0.2-5.7-0.3c-0.7-0.1-1.8-0.2-1.8-0.8c0,0,0-0.2,0.3-0.5
	c1.8-2.1,3-3.6,3.6-4.5c1.2-1.9,2.4-3.3,3.4-4.1c0.6-0.4,1.3-1.4,2.2-2.8c1.2-1.9,1.4-2.6,1.4-3s-0.2-1.4-1.9-1.4
	c-0.4,0-0.8,0-1.4,0.1c-0.8,0.1-1.7,0.7-2.7,1.9l-1.9,2.4c-2.4,2.7-4.2,5.1-5.2,7.1c-1.1,2.1-2.4,3.8-4.1,5.2
	c-0.2,0.2-0.8,0.5-2.4,0.5h-4.6c-0.6,0-1.6,0.1-2.8,0.2s-2.1,0.2-2.7,0.2c-5.5,0-6.1,0.1-6.3,0.2c-0.8,0.2-1.2,0.7-1.2,1.4
	c0,0.3,0.1,0.9,0.9,1.3c0.3,0.2,1.2,0.3,5.3,0.3h5.2c0.3,0,0.9,0,1.7,0c0.7,0,1.3,0,1.6,0c0.4,0,0.9,0.1,1.5,0.2
	c0.6,0.1,1.1,0.2,1.5,0.2c0,0,0,0.2-0.5,1c-3.2,4.8-6,8.2-8.4,9.9c-2.7,2.2-4.7,3.9-6.1,5.2c-1.1,0.8-2.2,1.6-3.3,2.5
	c-4.6,3.5-6.8,4.2-7.8,4.2c-0.9,0-1-0.2-1-0.4c0.1-0.1,0.4-0.7,1.6-2.3c1.8-2.3,2.2-2.7,2.2-2.8c0.9-1.1,1.8-2.3,2.8-3.5
	c1.3-1.7,2-3,2-4c0-0.7-0.3-1.4-1-2.2c-0.5-0.5-1.1-0.9-1.6-1.5c-0.7-0.6-1.6-0.9-2.7-0.9h-1.4c-1,0-2.3,0.5-4,1.6
	c-0.9,0.6-1.5,1-1.9,1.2c0.3-0.4,0.8-1,2-2c1.6-1.4,2.8-2.5,3.7-3.2c2.3-2.4,4.1-4.2,5.1-5.5c2.3-2.2,5.2-5.5,8.7-9.7
	c2.3-3.5,3.8-6,4.4-7.4c1.1-1.8,1.6-3.6,1.6-5.2c0-0.5-0.2-0.9-0.7-1.4c0.4-0.5,0.6-0.7,0.7-0.8c0.2,0.2,0.5,0.3,0.9,0.6
	c0.8,0.6,1.8,0.9,3,0.9c0.5,0,1-0.1,1.4-0.2c0.4-0.1,0.8-0.3,1.3-0.7c-0.4,0.8-0.5,1.4-0.5,1.7c0,2.3,1,5.1,6,5.1
	c1.6,0,3.5-0.7,5.6-2.1c2.1-1.4,3.6-2.8,4.4-4.2c0.4-0.7,0.7-0.9,0.9-1.1c0.2,0.2,0.5,0.3,0.9,0.6c0.8,0.6,1.8,0.9,3,0.9
	c0.5,0,1-0.1,1.4-0.2c0.5-0.2,1.1-0.5,1.9-1c-0.4,1-0.7,1.8-0.7,2.6c0,1.9,1.1,4.2,6.1,4.2c1.7,0,3.8-0.6,6-1.9
	c1.7-0.9,2.5-1.4,2.9-1.6c0.1,0.8,0.5,1.4,1.2,2c1.8,1.4,4.2,1,7.3-0.4c1.1-0.5,3.5-2.2,7.3-5.3c6.1-4.9,6.1-5.6,6.1-6
	c0-0.6-0.4-0.9-0.9-0.9c-0.3,0-0.6,0-6.5,4.7c-4.9,3.9-6.6,4.4-7.2,4.4c-0.7,0-1.4-0.2-1.4-1.7c0-0.5,0.4-1.8,3.3-5.7
	c1.8-2.5,3.4-4.5,4.6-5.8c3-3.2,4.7-5.4,5.1-6.6c0.4-1.1,1.6-2.7,3.7-4.8c2.3-3.4,4-6.2,5.2-8.4c1.7-2.7,3.2-5,4.4-6.9
	c0.1-0.3,0.5-0.9,1.6-2.6c1.1-1.7,1.3-2.3,1.3-2.7c0.7-2.3-0.4-2.8-1.3-2.8c-0.3,0-0.7,0-4.7,3.7c-0.9,0.9-1.8,2-2.6,3.3
	c-0.7,1.3-1.5,2.5-2.1,3.7c-5.6,8.8-9.9,15.4-12.9,19.8c-1.5,2.4-2,3.2-2.1,3.5c-0.2,0.3-0.5,0.5-0.7,0.6c0,0-0.3-0.1-1.3-1.1
	c-1-0.9-1.8-1.3-2.7-1.3c-1.9,0-4.6,1.1-8,3.3c-2.2,1.4-3.9,2.7-5.2,4c-0.5,0.3-1.4,1-3,2.3c-2.4,2-3.7,2.4-4.4,2.4
	c-1.3,0-1.3-0.6-1.3-0.9c0,0,0-0.2,0.5-0.9s0.7-1.4,0.7-2.3v-2.9c0-0.3-0.2-0.9-2.1-3.6c-0.9-1.2-2.6-1.3-4.7-0.2
	c-0.9,0.5-1.7,1-2.5,1.4c-2.3,1.1-4.4,2.6-6.4,4.6c-0.5,0.3-1.4,1-3,2.3c-2.4,2-3.7,2.4-4.4,2.4c-1.3,0-1.3-0.6-1.3-0.9
	c0,0,0-0.2,0.5-0.9s0.7-1.4,0.7-2.3v-2.9c0-0.3-0.2-0.9-2.1-3.6c-0.9-1.2-2.6-1.3-4.7-0.2c-0.9,0.5-1.7,1-2.5,1.4
	c-2.5,1.2-4.8,2.9-6.8,5.1c-8.3,6.4-11.9,9-13.4,10c0.8-1.6,1.6-3,2.2-4.1c0.7-1.1,1.9-2.6,3.6-4.5c0.5-0.5,1.2-1.4,2.1-2.9
	c1.2-2,1.4-2.7,1.4-3.1c0-0.8-0.3-2-2.6-2c-1.2,0-2.3,0.5-3,1.4s-1,1-1,1s-0.1-0.1-0.1-0.4c-0.2-0.5-0.6-1.1-1.6-1.4
	c0-0.9-0.7-1.8-1.9-1.5c-13.3,3.7-37.1,13.7-39.7,14s-6.4,0.6-6.4,0.6s-4.2,1-4.2-0.1s1.5-3.9,1.5-3.9s1.9-2,2.1-2.7
	c1.5-2.5,2.7-4.3,3.7-5.5c4.5-7.3,7.1-8.9,8.5-8.9h2.7c1.1,0,2.9,0,5.1,0c2.3,0,4,0,5.2,0h2.2c1.4,0,2.6,0,3.4,0c1.3,0,2,0,2.1,0
	h0.5c0.6,0,1.4,0,2.4-0.1c4.3-0.2,7.6-0.2,9.8-0.2c2-0.1,2.4-1,2.4-1.7c0-0.4-0.2-1.1-1.7-1.1h-3.4c-0.7,0-1.7-0.1-3.1-0.2
	c-1.5-0.1-2.6-0.2-3.3-0.2h-0.8c-3.9,0.2-6.7,0.3-8.6,0.4H153v0.1c-0.7-0.1-2.3-0.2-6-0.3c-3.3-0.1-5.3-0.2-5.7-0.3
	c-0.7-0.1-1.8-0.2-1.8-0.8c0,0,0-0.2,0.3-0.5c1.8-2.1,3-3.6,3.6-4.5c1.2-1.9,2.4-3.3,3.4-4.1c0.6-0.4,1.3-1.4,2.2-2.8
	c1.2-1.9,1.4-2.6,1.4-3s-0.2-1.2-1.5-1.3c0.7-0.1,1.4-0.3,2.1-0.5c11.4-0.6,22.3-3.6,32.3-8.9c-0.3,0.5-0.6,1-0.7,1.5
	c-2.4,3.7-2.5,3.8-2.5,3.9c-0.5,0.8-0.8,1.6-0.8,2.2c0,0.9,0.4,1.7,1.2,2.4s1.5,1,2.4,1s2.2-0.3,3.9-1c1.6-0.6,3.9-2.1,6.7-4.4
	c4.3-3.4,6.4-5.3,7.5-6.4c0.1-0.1,0.2-0.1,0.2-0.2c0.9-0.7,1.5-1.2,2-1.6c0,0.1-0.1,0.1-0.1,0.2c-0.9,1.3-1.4,2-1.5,2.2
	c-2.2,3-3.9,5.3-5.1,6.7c-0.6,0.7-0.9,1.4-0.9,1.9c0,1.4,1.2,2,3.6,2c0.9,0,1.6-0.4,2.1-1.2c1.8-2.8,3.3-4.8,4.4-6.2
	c1.4-1.9,2.9-3.4,4.6-4.4c1.1-0.7,2.1-1.5,3.2-2.1c1.3-0.9,2.3-1.3,3.2-1.3c0.8,0,1,0.2,1,0.1c0,0.2-0.5,1-4.4,4.9
	c-4.2,4.2-4.7,5.8-4.7,6.6c0,0.5,0.2,1,0.5,1.3c1.3,1.8,2.4,2.6,3.6,2.6c0.9,0,2.8-0.5,6-1.7c1.4-0.5,3.1-1.6,5.1-3.1
	c1.9-1.5,3.5-2.8,4.7-3.8c0.3-0.2,0.7-0.5,1.1-0.8c0.4-0.3,0.7-0.6,1-0.7c-0.4,0.6-0.7,1.2-1.1,1.8c-1.7,2.8-1.9,3.8-1.9,4.3
	c0,1.1,0.5,2,1.5,2.8s2,1.1,3,1.1c0.5,0,1.3-0.2,2.5-0.5c1.7-0.4,2.2-0.7,2.3-0.9c1.5-0.8,2.7-1.4,3.6-1.8c1.1-0.8,2.2-1.6,3.1-2.4
	c-0.1,0.4-0.1,0.6-0.1,0.8c0,2.3,1,5.1,6,5.1c1.6,0,3.4-0.7,5.6-2.1c2.1-1.4,3.6-2.8,4.4-4.2c0.4-0.7,0.7-0.9,0.9-1.1
	c0.2,0.2,0.5,0.3,0.9,0.6c0.8,0.6,1.8,0.9,3,0.9c0.5,0,1-0.1,1.4-0.2c0.9-0.3,2.5-1.3,4.8-3.2c3.5-2.7,4-3.6,4-4.2s-0.4-0.9-1-0.9
	c-0.3,0-0.6,0-3.8,2.6c-2.4,2-3.7,2.4-4.4,2.4c-1.3,0-1.3-0.6-1.3-0.9c0,0,0-0.2,0.5-0.9s0.7-1.4,0.7-2.3v-2.9
	c0-0.3-0.2-0.9-2.1-3.6c-0.9-1.2-2.6-1.3-4.7-0.2c-0.9,0.5-1.7,1-2.5,1.4c-2.6,1.2-5,3.1-7.2,5.5c-0.1,0.1-0.2,0.2-0.3,0.4
	c-1,0.7-2.4,1.8-4.5,3.4c-5.2,4-7.7,4.8-8.8,4.8c-0.5,0-0.9-0.2-0.9-1c0-0.6,0.3-1.4,1-2.3c1.3-1.7,1.6-2.3,1.7-2.6
	c0.5-1.1,0.9-2,1.1-2.6c1.5-2.5,2.7-4.3,3.7-5.5c4.5-7.3,7.1-8.9,8.5-8.9h2.7c1.1,0,2.9,0,5.1,0c2.3,0,4,0,5.2,0h2.2
	c1.4,0,2.6,0,3.4,0c1.3,0,2,0,2.1,0h0.5c0.6,0,1.4,0,2.4-0.1c4.3-0.2,7.6-0.2,9.8-0.2c2-0.1,2.4-1,2.4-1.7
	C286.5,105,286.3,104.3,284.8,104.3z M245.9,75.9c2.3-3.3,3.4-4.2,4-4.5c0.6-0.2,0.9-0.2,1-0.2c0.2,0,0.5,0,0.6,0.1
	c0,0.1-0.1,0.3-0.3,0.8c-0.3,0.6-0.4,1.3-0.4,2.1v1.5c0,0.6-0.1,1.1-0.3,1.5c-0.5,1.1-1.4,2.3-2.7,3.6c-1.8,1.8-2.8,2.2-3.4,2.2
	c-0.8-0.1-1.3-0.3-1.3-1.5C243.1,80.7,243.6,79.2,245.9,75.9z M60.4,73.4c-0.6,1.1-1.2,2.3-1.7,3.3c-0.6,1-1.4,2-2.6,2.8
	c-4.7,3.7-5.7,4-6,4c-0.2,0-0.5,0-0.8-0.5c-0.3-0.3-0.4-0.7-0.4-1c0-0.1,0.2-0.8,2.1-4.1c0.9-1.6,1.6-2.8,2.1-3.6
	c1.5-1.8,2.8-3,3.8-3.5c1.5-0.7,2.2-0.8,2.5-0.8s0.7,0.2,1,0.6c0.4,0.4,0.6,0.8,0.6,1.1C61,72.1,60.8,72.7,60.4,73.4z M85.4,72.1
	c-0.3,0.6-0.4,1.3-0.4,2.1v1.5c0,0.6-0.1,1.1-0.3,1.5c-0.5,1.1-1.4,2.3-2.7,3.6c-1.8,1.8-2.8,2.2-3.4,2.2c-0.7-0.1-1.3-0.3-1.3-1.5
	c0-0.8,0.5-2.3,2.8-5.6c2.3-3.3,3.4-4.2,4-4.5c0.6-0.2,0.9-0.2,1-0.2c0.2,0,0.5,0,0.6,0.1C85.7,71.4,85.6,71.6,85.4,72.1z
	 M159.3,72.1c-0.3,0.6-0.4,1.3-0.4,2.1v1.5c0,0.6-0.1,1.1-0.3,1.5c-0.5,1.1-1.4,2.3-2.7,3.6c-1.8,1.8-2.8,2.2-3.4,2.2
	c-0.6,0-1.2-0.2-1.2-1.4c0-0.8,0.5-2.3,2.8-5.6s3.4-4.2,4-4.5c0.6-0.2,0.9-0.2,1-0.2c0.1-0.2,0.4-0.1,0.5,0
	C159.6,71.4,159.5,71.6,159.3,72.1z M66.1,120.6c1.7-1.6,2.6-1.9,3-2c-0.1,0.3-0.2,0.7-0.6,1.4c-0.2,0.3-0.8,0.8-2.3,1.9
	c-1.3,0.9-1.9,1.2-2.2,1.2C64.2,122.7,64.6,121.9,66.1,120.6z M29,154c-4.2,5.2-6.9,8.5-8.2,9.6c-2.4,2.1-3.3,2.7-3.6,2.9
	c0-0.3,0.1-0.9,0.6-2.2c0.8-2.3,2.5-5,5.2-8c3.9-4.3,7.6-7.6,10.9-9.9c0.5-0.3,0.9-0.6,1.2-0.9C34.5,146.6,32.9,149,29,154z
	 M47.9,122.4c-1.6,2.9-2.8,4.7-3.6,5.4c-2.4,1.7-4.2,2.6-5.4,2.6c-0.7,0-0.9-0.3-0.9-0.8c0-1.4,1-3.2,3-5.6c1.9-2.3,3.6-3.7,5-4.2
	c0.1-0.1,0.4-0.2,0.9-0.5s0.8-0.3,0.8-0.3c0.3,0,0.9,0,0.9,1.2C48.6,120.8,48.4,121.6,47.9,122.4z M129.9,248.1
	c-4.1,5.2-6.9,8.5-8.2,9.6c-2.4,2.1-3.3,2.7-3.6,2.9c0-0.3,0.1-0.9,0.6-2.2c0.8-2.3,2.5-5,5.2-8c3.9-4.3,7.6-7.6,10.9-9.9
	c0.5-0.3,0.9-0.6,1.2-0.9C135.4,240.7,133.8,243.1,129.9,248.1z M238.6,172c0.9-1.6,1.6-2.8,2.1-3.6c1.7-1.9,3-3.2,4-3.6
	c1.5-0.7,2.2-0.8,2.5-0.8s0.7,0.2,1,0.6c0.4,0.4,0.6,0.8,0.6,1.1c0,0.4-0.2,1-0.6,1.7c-0.6,1.1-1.2,2.2-1.8,3.3
	c-0.6,1-1.4,2-2.6,2.8c-4.7,3.7-5.7,4-6,4c-0.2,0-0.5,0-0.8-0.5c-0.4-0.2-0.5-0.5-0.5-0.9C236.5,176,236.7,175.3,238.6,172z
	 M216,170.1c2.3-3.3,3.4-4.2,4-4.5c0.6-0.2,0.9-0.2,1-0.2c0.1-0.2,0.5-0.2,0.5,0c0,0.1-0.1,0.3-0.3,0.8c-0.3,0.6-0.4,1.3-0.4,2.1
	v1.5c0,0.6-0.1,1.1-0.3,1.5c-0.5,1.1-1.4,2.3-2.7,3.6c-1.8,1.8-2.8,2.2-3.4,2.2c-0.6,0-1.2-0.2-1.2-1.4
	C213.2,174.9,213.7,173.4,216,170.1z M148.7,203.3c3.9-4.3,7.6-7.6,10.9-9.9c0.5-0.3,0.9-0.6,1.2-0.9c-0.6,1.2-2.2,3.5-6.1,8.5
	c-3.1,3.9-5.3,6.7-6.9,8.3c-1.3,0.3-2.7,0.9-4.3,1.8C144.3,208.9,146,206.2,148.7,203.3z M148.8,216.5c-1.6,2.9-2.8,4.7-3.6,5.4
	c-2.4,1.7-4.2,2.6-5.4,2.6c-0.7,0-0.9-0.3-0.9-0.8c0-1.3,1-3.2,2.9-5.5c2-0.2,4.5-1.7,7.6-4.5c0.1,0.2,0.1,0.4,0.1,0.6
	C149.5,214.9,149.3,215.7,148.8,216.5z M193,169.8c2.3-3.3,3.4-4.2,4-4.5c0.6-0.2,0.9-0.2,1-0.2c0.2,0,0.5,0,0.6,0.1
	c0,0.1-0.1,0.3-0.3,0.8c-0.3,0.6-0.4,1.3-0.4,2.1v1.5c0,0.6-0.1,1.1-0.3,1.5c-0.5,1-1.2,1.9-2.1,2.9c-0.3,0-0.6,0.1-3.4,2.7
	c-0.3,0.1-0.5,0.1-0.7,0.1c-0.6,0-1.2-0.2-1.2-1.4C190.2,174.6,190.7,173.1,193,169.8z M193.2,181c0,0,0.1,0.1,0.1,0.4
	c0,1.2-0.5,2.6-1.4,4c-1,1.5-2.4,3.3-4.3,5.3l-4.8,5.2c-3.7,4.1-5.4,5.8-6.2,6.5c0.4-0.7,1.2-2.4,3.2-5.8c1.1-1.8,1.8-3,2.2-3.5
	C190,182.6,192.5,181,193.2,181z M175.9,180.8c1.4-0.9,3.6-2.6,6.5-4.8c-0.1,0.4-0.2,0.7-0.2,0.9c0,2.2,0.9,4.7,5,5
	c-3.4,3.9-6.1,7.1-7.8,9.4c-3.8,5.9-6.5,10.5-8.2,13.6c-2.2,3.3-3.9,5.8-5.1,7.4c-0.5,0.6-1.2,1.5-2,2.3c-0.2,0.1-0.5,0.2-0.7,0.4
	c-8.5,6.6-12.2,9.3-13.7,10.3c0.8-1.6,1.6-3,2.2-4.1c0.7-1.1,1.9-2.6,3.6-4.5c0.5-0.5,1.2-1.4,2.1-2.9c1.2-2,1.4-2.7,1.4-3.1
	c0-0.8-0.3-2-2.6-2c-1.2,0-2.3,0.5-3,1.4s-1,1-1,1c1.8-2,3.7-4.3,5.6-7c0.9-1.3,3-4.5,6.2-9.5c2.6-4,4.5-7,5.8-9.1
	C171.2,184.2,173.2,182.6,175.9,180.8z M173.6,169.5c-1.6,2.9-2.8,4.7-3.6,5.4c-2.4,1.7-4.2,2.6-5.4,2.6c-0.7,0-0.9-0.3-0.9-0.8
	c0-1.4,1-3.2,3-5.6c1.9-2.3,3.6-3.8,5-4.2c0.1-0.1,0.4-0.2,0.9-0.5s0.8-0.3,0.8-0.3c0.3,0,0.9,0,0.9,1.2
	C174.3,167.9,174.1,168.7,173.6,169.5z M226.3,72c0.3,0,0.9,0,0.9,1.2c0,0.6-0.2,1.4-0.7,2.2c-1.6,2.9-2.8,4.7-3.6,5.4
	c-2.4,1.7-4.2,2.6-5.4,2.6c-0.7,0-0.9-0.3-0.9-0.8c0-1.4,1-3.2,3-5.6c1.9-2.3,3.6-3.8,5-4.2c0.1-0.1,0.4-0.2,0.9-0.5
	S226.3,72,226.3,72z M148.8,101.8c7.3-11,11-13.4,12.8-13.4c0,0,0,0.1,0,0.3c0,1.4-1.6,5-9.5,14.5c-0.2,0.3-0.4,0.5-0.6,0.8
	c-1.8,0.1-3.3,0.2-4.5,0.2C147.7,103.2,148.3,102.4,148.8,101.8z M144.7,107.3C144.7,107.3,144.8,107.3,144.7,107.3h0.8
	c1,0,1.8,0,2.5,0c-0.1,0.1-0.3,0.3-0.4,0.4c-0.9,0.7-1.6,1.3-2.3,1.8c-1.3,1.1-2.3,1.8-2.9,2.2L144.7,107.3z M115.2,126.9
	c1-1.3,1.5-2.1,1.7-2.6c0.5-1.1,0.9-2,1.1-2.6c1.5-2.5,2.7-4.3,3.7-5.5c4.5-7.3,7.1-8.9,8.5-8.9h2.7c1.1,0,2.9,0,5.1,0
	c0.9,0,1.6,0,2.3,0c-1.7,2.7-3.5,5.3-5.4,8c-1.9,2-3.3,3.5-4.3,4.3c-2.3,2-4,3.5-5.2,4.5c-0.6,0.4-0.9,0.7-1,0.9
	c-0.2,0.1-0.3,0.2-0.5,0.4c-5.2,4-7.7,4.8-8.8,4.8c-0.5,0-0.9-0.2-0.9-1C114.2,128.6,114.5,127.8,115.2,126.9z M68,149.4
	c1.8-2.1,3-3.6,3.6-4.5c1.2-1.9,2.4-3.3,3.4-4.1c0.6-0.4,1.3-1.4,2.2-2.8c1.2-1.9,1.4-2.6,1.4-3c0-0.3-0.1-0.9-0.8-1.2
	c0.3,0.2,0.7,0.3,1.2,0.3c0.9,0,1.6-0.4,2.1-1.2c1.8-2.8,3.3-4.8,4.4-6.2c1.4-1.9,2.9-3.4,4.6-4.4c1.1-0.7,2.1-1.5,3.2-2.1
	c1.3-0.9,2.3-1.3,3.2-1.3c0.8,0,1,0.2,1,0.1c-0.1,0.2-0.5,1-4.4,4.9c-4.2,4.2-4.7,5.8-4.7,6.6c0,0.5,0.2,1,0.5,1.3
	c0.6,0.9,1.2,1.5,1.8,1.9c-3.8,4.4-6.7,7.8-8.6,10.3c-1.7,2.7-3.2,5-4.4,7.1c-0.7,0-1.5,0-2.5-0.1c-3.3-0.1-5.3-0.2-5.7-0.3
	c-0.7-0.1-1.8-0.2-1.8-0.8C67.7,149.9,67.7,149.7,68,149.4z M96,134.4c0,1.2-0.5,2.6-1.4,4c-1,1.5-2.4,3.3-4.3,5.3l-4.8,5.2
	c-0.8,0.9-1.4,1.6-2,2.2c-0.6,0-1.1,0.1-1.6,0.1h-0.3c0.3-0.5,0.6-1.1,1-1.7c1.1-1.8,1.8-3,2.2-3.5c7.9-10.4,10.4-12,11.1-12
	C95.9,134,96,134.1,96,134.4z M80.5,154.3c-0.5,0.5-0.9,0.9-1.2,1.1c0.1-0.2,0.3-0.6,0.6-1.1H80.5z M73.8,157.5
	c-2.2,3.3-3.9,5.8-5.1,7.4c-0.6,1.3-1.6,2.4-2.8,3.5c-1,0.7-2.6,1.9-5.4,4c-5.2,4-7.7,4.8-8.8,4.8c-0.5,0-0.9-0.2-0.9-1
	c0-0.6,0.3-1.4,1-2.3c1.3-1.7,1.6-2.3,1.7-2.6c0.5-1.1,0.9-2,1.1-2.7c1.5-2.5,2.7-4.3,3.7-5.5c4.5-7.3,7.1-8.9,8.5-8.9h2.7
	c1.1,0,2.9,0,5.1,0c0.4,0,0.7,0,1.1,0C75,155.4,74.3,156.6,73.8,157.5z M103.9,172.1c-0.6,0.7-1.6,1.6-3.1,2.6
	c-1.7,1.2-2.7,1.5-3.2,1.5s-0.9-0.2-0.9-1c0-1.7,1.3-3.9,3.8-6.5s4.6-3.8,6.3-3.8c0.4,0,0.6,0.1,0.6,0.6
	C107.4,167,106.2,169.2,103.9,172.1z M144.6,135.8l-1.9,2.4c-2.4,2.7-4.2,5.1-5.2,7.1c-1.1,2.1-2.4,3.8-4.1,5.2
	c-0.2,0.2-0.8,0.5-2.4,0.5h-4.6c-0.6,0-1.6,0.1-2.8,0.2c-1.2,0.1-2.1,0.2-2.7,0.2c-5.5,0-6.1,0.1-6.3,0.2c-0.8,0.2-1.2,0.7-1.2,1.4
	c0,0.3,0.1,0.9,0.9,1.3c0.3,0.2,1.2,0.3,5.3,0.3h5.2c0.3,0,0.9,0,1.7,0c0.7,0,1.3,0,1.6,0c0.4,0,0.9,0.1,1.5,0.2
	c0.7,0.1,1.2,0.2,1.5,0.2c0,0,0,0.2-0.5,1c-3.2,4.8-6,8.2-8.4,9.9c-2.5,2-4.4,3.7-5.7,4.9c-0.5,0.4-1.1,0.9-1.8,1.4
	c-4.6,3.8-6.3,4.3-6.9,4.3c-0.1,0-0.3,0-0.3-0.7c0-0.4,0.5-1.8,4-5.9c4.2-5,4.2-5.5,4.2-5.8c0-0.4-0.2-1.4-1.9-1.4
	c-0.8,0-1.6,0.3-2.1,1c-0.5,0.6-0.8,0.6-0.9,0.7c0,0-0.2-0.1-0.6-1c-0.3-0.7-1.1-1.6-2.8-1.6c-1.4,0-4.1,1.3-8.3,4
	c-1.5,1.2-2.7,2.2-3.7,3.1c-2,1.6-4,3.1-6.1,4.7c-4.6,3.5-6.8,4.2-7.8,4.2c-0.9,0-1-0.2-1-0.4c0.1-0.1,0.4-0.7,1.6-2.3
	c1.9-2.4,2.2-2.8,2.2-2.8c0.9-1.1,1.8-2.3,2.8-3.5c1.3-1.7,2-3,2-4c0-0.7-0.3-1.4-1-2.2c-0.5-0.5-1.1-0.9-1.6-1.5
	c-0.7-0.6-1.6-0.9-2.7-0.9h-1.4c-1,0-2.3,0.5-4,1.6c-0.9,0.6-1.5,1-1.9,1.2c0.3-0.4,0.8-1,2-2c1.6-1.4,2.8-2.5,3.7-3.2
	c1.1-1.2,2.1-2.2,3-3.1c0.3,0,0.5,0,0.8,0c1.3,0,2,0,2.1,0h0.5c0.6,0,1.4,0,2.4-0.1c4.3-0.2,7.6-0.2,9.8-0.2c2-0.1,2.4-1,2.4-1.7
	c0-0.4-0.2-1.1-1.7-1.1h-3.4c-0.7,0-1.7-0.1-3.1-0.2c-1.5-0.1-2.6-0.2-3.3-0.2h-0.8c-0.9,0-1.7,0.1-2.5,0.1c2.1-2.2,4.7-5.1,7.7-8.7
	c2.3-3.5,3.8-6,4.4-7.4c0.7-1.2,1.2-2.4,1.4-3.6c0.7-0.4,1.4-0.9,2.2-1.5c1.9-1.5,3.5-2.8,4.7-3.8c0.3-0.2,0.7-0.5,1.1-0.8
	s0.7-0.6,1-0.7c-0.4,0.6-0.7,1.2-1.1,1.8c-1.7,2.8-1.9,3.8-1.9,4.3c0,1.1,0.5,2,1.5,2.8s2,1.1,3,1.1c0.5,0,1.3-0.2,2.5-0.5
	c1.7-0.4,2.2-0.7,2.3-0.9c1.5-0.8,2.7-1.4,3.6-1.8c3.6-2.7,6.4-4.9,8.3-6.5c-0.1,0.4-0.4,1.2-1.2,2.5c-1.2,2.2-1.4,3-1.4,3.3
	c0,0.9,0.5,1.8,1.6,2.7c1,0.9,2,1.3,2.9,1.3c1.6,0,4.1-0.9,7.5-2.8c1.1-0.6,2.1-1.2,3-1.8c0.3,2.7,1.9,4.1,4.8,4.1
	c0.1,0,0.3,0,0.4,0C145.9,134.5,145.3,135,144.6,135.8z M147.6,129.2c0,0,0-0.4,0.7-1.9c0.1-0.2,0.1-0.3,0.1-0.4
	c0.1,0,0.2-0.1,0.4-0.2c1.8-0.6,4.1-1.9,6.8-3.9c2.8-2.1,4.2-4.4,4.2-7c0-1.4-0.7-2.2-2-2.2c-0.6,0-1.8,0.2-5.4,2.3
	c-1.9,1.1-3.6,2.4-5,4.1c-1.4,1.6-2.8,3.2-4.1,4.8c-0.1,0.1-0.2,0.2-0.3,0.3c-0.5,0.4-0.9,0.7-1.3,1c-1.6,1.2-3.4,2.1-5.4,2.6
	c-1.4,0.4-1.9,0.4-2,0.4c-1.2,0-1.2-0.6-1.2-0.9c0-0.1,0.1-0.6,0.9-2c2.8-5,4.9-8.1,6.1-9.1s2.2-1.8,2.9-2.2c2.4-1.6,4.4-3.2,6-4.6
	c1.3-1.1,2.5-2.2,3.6-3.3c0.4,0,0.9,0,1.5-0.1c4.3-0.2,7.6-0.2,9.8-0.2c2-0.1,2.4-1,2.4-1.7c0-0.4-0.2-1.1-1.7-1.1H161
	c-0.7,0-1.7-0.1-3.1-0.2c-0.8-0.1-1.5-0.1-2.1-0.2c1.1-1.2,2.1-2.5,3-3.7c2.6-4.1,4.6-7.2,5.7-9.3c1.3-1.7,1.9-3.4,1.9-5.2
	c0-0.4,0-0.7-0.1-0.9c-0.1-0.8-0.6-1.5-1.5-2.3c-0.4-0.4-0.8-0.7-1.2-0.9c0.1,0,0.2,0,0.3,0c0.5,0,1-0.1,1.4-0.2
	c0.7-0.2,1.9-0.9,3.5-2.1c0.4-0.1,1.1-0.5,2.2-1.4c0.4-0.3,0.7-0.6,1-0.7c-0.4,0.6-0.7,1.2-1.1,1.8c-1.7,2.8-1.9,3.8-1.9,4.3
	c0,1.1,0.5,2,1.5,2.8s2,1.1,3,1.1c0.5,0,13-0.2,15.3-0.8c7.7-2.1,15.3-5.2,22.8-8.3c-1,1.2-1.6,2.6-1.6,4.3c0,1.2,0.4,2.5,1.2,3.7
	c0.9,1.3,1.9,1.9,3.2,1.9c1.4,0,3.2-0.5,5.1-1.4c0.5-0.2,0.8-0.4,1.2-0.6c-0.3,0.6-0.7,1.4-1.2,2.4c-1.1,2.3-2.9,4.4-5.4,6.4
	c-0.6,0.5-1.9,1.6-3.6,3.3c-1.4,1.3-2.6,2.4-3.7,3.1c-2.3,1.9-4,3.4-5,4.5c-3.1,2.8-5.4,5.3-6.8,7.3c-0.4,0.7-0.8,1.3-1.2,2
	c-0.4-0.2-0.8-0.2-1.2,0c-0.2,0-0.5-0.1-0.7-0.1c-1,0-2.2,1-3.7,3.2c-8.9,5.8-23.2,10.6-29.2,11.4s-7.3,0.8-8.8,0.9
	c-0.1,0-0.1,0-0.2,0c-0.2,0-0.3,0-0.5,0C147.6,130.1,147.6,129.4,147.6,129.2z M150.2,123.2c0.1-0.5,0.6-1.2,2-2.5
	c1.7-1.6,2.6-1.9,3-2c-0.1,0.3-0.2,0.7-0.6,1.4c-0.2,0.3-0.8,0.8-2.3,1.9C151.1,122.8,150.5,123.1,150.2,123.2z M188,129.3
	c-0.3,0-0.9,0-0.9-0.3c0-0.6,0.4-2,2.6-5.2c0.9-1.4,1.8-2.6,2.6-3.6c-0.1,0.5-0.1,1.1-0.1,1.6c0,2.1,1.3,2.4,2,2.4s1.5-0.2,2.3-0.5
	C189.9,128.7,188.4,129.3,188,129.3z M199.3,116.5c-2.3,2.2-3.2,2.8-3.6,2.9c0-0.3,0.1-0.9,0.6-2.2c0.8-2.3,2.5-5,5.2-8
	c3.9-4.3,7.6-7.6,10.9-9.9c0.5-0.3,0.9-0.6,1.2-0.9c-0.6,1.1-2.2,3.5-6.1,8.5C203.4,112.2,200.6,115.4,199.3,116.5z M254.7,122.9
	c2.3-3.3,3.4-4.2,4-4.5c0.6-0.2,0.9-0.2,1-0.2c0.2,0,0.5,0,0.6,0.1c0,0.1-0.1,0.3-0.3,0.8c-0.3,0.6-0.4,1.3-0.4,2.1v1.5
	c0,0.6-0.1,1.1-0.3,1.5c-0.5,1.1-1.4,2.3-2.7,3.6c-1.8,1.8-2.8,2.2-3.4,2.2c-0.8-0.1-1.3-0.3-1.3-1.5
	C251.9,127.7,252.4,126.2,254.7,122.9z"/>
</svg>
