<?xml version="1.0" encoding="utf-8"?>
<!-- Generator: Adobe Illustrator 23.0.3, SVG Export Plug-In . SVG Version: 6.00 Build 0)  -->
<svg version="1.1" id="Layer_1" xmlns="http://www.w3.org/2000/svg" xmlns:xlink="http://www.w3.org/1999/xlink" x="0px" y="0px"
	 viewBox="0 0 300 300" style="enable-background:new 0 0 300 300;" xml:space="preserve">
<style type="text/css">
	.st0{fill:none;stroke:#000000;stroke-miterlimit:10;}
</style>
<g>
	<path class="st0" d="M137.9,118.1c-10.8,3.2-8.7,66.1,5.4,61.6C159.4,174.4,152.8,113.7,137.9,118.1z"/>
	<path class="st0" d="M187.2,85.1c-21.1-34.9-65.7-34-87.8-0.7c-20.5,30.9-21.2,94.3-2.7,126c21,36.1,64.4,30.8,88.8,0.4
		C209.3,180.9,206.3,116.8,187.2,85.1z M152.7,172.3c-14.1,39.5-36-33.5-21.1-51.7C153.2,94.3,157.8,158.1,152.7,172.3z
		 M183.9,107.9c-3.6,31.4-101.5-46.4-32-36l-6.8,0.8C168.6,72.3,187,81.2,183.9,107.9z"/>
</g>
<g>
	<path class="st0" d="M254.9,93.2c0.5-0.2,1.1-0.3,1.6-0.5C256,92.8,255.5,93,254.9,93.2z"/>
	<path class="st0" d="M238.9,89.4c-20-18.9,14.1-19.9,19.1-32.3c-13.4,13.5-36-0.6-44.9-11c5.4-8.4,6.7-17.5,3.9-27.3
		c-15.4,23.8-32.3,17.5-57.6,17.4c3.3-7.6,3.9-15.7,1.9-24.2c-11.9,20.6-29,30-53.6,29.4c-0.4-7.5-0.9-15-1.3-22.6
		c-1.1,21.9-43.1,48.4-39.6,61.5c8.8-6.2,17.7-12.3,26.3-18.7c-1.2,0.7-2.5,1.4-3.7,2C106,53.3,150,50.4,157.6,39.5
		c12.2,12.6,34.5,4.5,44.6,12.6c2.9,2.3,6.6,13.6,12.8,16.9c27.9,14.9-14.2,42.9,40,24.2C249.4,94.8,243.1,93.4,238.9,89.4z"/>
</g>
<path class="st0" d="M217.1,215.2c7.2,0.3,14.3,2.3,20.6,5.8c-4.8-8.4-12.9-15.9-21.9-19.8c-12.5,19.8-32.2,35-53.9,45
	c-0.7-1-1.5-1.8-2.6-2.4c-23.6,16.1-92.9-6.8-95.7-4.1c0.7-0.7,15.2,38.7,13.9,46.7c1.7-10.1,3.3-20.1,4.7-30.2
	C109,268,123.3,258.4,121,293c1.8-9.7,2.3-19.6,1.8-29.4c9.9-0.4,19.5-2.1,28.8-5.1c6.7,4.5,11.1,12.3,11.2,20.4
	c0.8-8.3,1.2-16.7,1.2-25.1c9.4-4.2,18.2-9.5,26.6-15.6c11.4,4.6,16,12.5,13.7,23.7c2.7-11.2,1.9-22.1-2.5-32.5
	C207.1,224.8,212.2,220.1,217.1,215.2z"/>
</svg>
