<?xml version="1.0" encoding="utf-8"?>
<!-- Generator: Adobe Illustrator 23.0.3, SVG Export Plug-In . SVG Version: 6.00 Build 0)  -->
<svg version="1.1" id="Layer_1" xmlns="http://www.w3.org/2000/svg" xmlns:xlink="http://www.w3.org/1999/xlink" x="0px" y="0px"
	 viewBox="0 0 300 300" style="enable-background:new 0 0 300 300;" xml:space="preserve">
<style type="text/css">
	.st0{fill:none;stroke:#000000;stroke-miterlimit:10;}
</style>
<g>
	<path class="st0" d="M237.3,83.5c3.2-1.9,5.9-4.3,8.5-6.9c0.3-2.7,0-5.5-1.9-7.3c-2.3-2.2-6-2-8.8-0.6c-2.8,1.5-4.9,3.9-7.1,6.2
		c-2.6,2.7-5.3,5-8.2,7.2C223.3,87.5,232.1,86.5,237.3,83.5z"/>
	<path class="st0" d="M171.7,45.4c3.8,0.4,6-2.2,8.1-5.1c2.7-3.8,5-7.8,7.2-11.9c-1.6,0-3.2,0.4-4.6,1.1c-2.8,1.6-4.7,4.2-6.7,6.7
		c-2.2,2.8-4.5,5.5-6.9,8.1C169.6,44.9,170.5,45.3,171.7,45.4z"/>
	<path class="st0" d="M241.4,155.2c0,3.3,0.8,6.5,4.6,7.6c3.1,0.9,7.2,0.1,10.3-0.3c3.2-0.4,6.4-1,9.6-1.8c-0.6-3-2.3-5.7-5-7.1
		c-4.1-2.2-9-0.9-13.5,0.2C245.4,154.4,243.4,154.8,241.4,155.2z"/>
	<path class="st0" d="M247.7,166.1c-6.6-0.5-8.9-4.9-9.2-10.3c-26.5,4.4-53.9,0.5-80.7-3.5l0,0c4.9-8.4,15.5-11.5,24.8-14.5
		c14.3-4.7,28.2-11.3,39.6-21.1c10.7-9.2,19.1-21.3,22.6-34.9c-4.1,3.6-8.5,6.7-14,7.5c-5.2,0.7-10.4-1.3-13.2-5.3
		c-26.9,18.7-65.3,21.3-88.1,45.2c7.8-16.7,22.1-29.4,35.1-42.6C178,72.8,190.9,57,192.9,38.1c0.3-2.8,0.2-6-1.7-8
		c-0.4-0.4-0.8-0.7-1.3-1c-2,3.8-4.1,7.5-6.5,11.1c-1.7,2.6-3.6,5.4-6.2,7.1c-3.9,2.5-7.4,1.5-10.5-0.8
		C148.5,66.1,126.2,82,108,101.8c-32.5,35.2-68.4,98.9-68.4,98.9c-1.2,7.7-1.9,15.4-2,23.2c-0.1,8.3,0.5,16.7,3.6,24.3
		c4,10.1,12.2,18.1,21.3,23.9s19.4,9.7,29.6,13.5c3.7,1.4,7.8,2.8,11.6,1.7c2.9-0.9,5.2-3.1,7.3-5.4c12.4-13.8,48.1-43.9,51-62.2
		c8,6.2,16.1,12.5,24.1,18.7c7.4,5.8,15.3,11.7,24.7,12.9c5.3,0.7,11.2-1,15.3-4.2c-6-2.5-11.5-6-13.8-11.9c-1.5-4-0.6-8.5,1.9-11.4
		c-5.4-2.8-10.6-6.2-15.2-10.1c-8.7-7.4-16.2-17-26-22.5l-0.1-1.8c13.9,3.2,28,5.7,42.2,5.1c15.7-0.7,31.7-5.6,43.2-16.3
		c3.5-3.3,6.6-7.2,7.6-11.9c0.1-0.7,0.2-1.4,0.2-2.2C260,165.6,253.7,166.5,247.7,166.1z"/>
	<path class="st0" d="M222.2,241.6c2,1.2,4.2,2.2,6.4,3.1c1.8-2.1,2.9-4.6,3.2-7.5c0.2-2.6-0.5-5.3-2.4-7c-1.2-1-2.8-1.5-4.3-2
		c-2.7-0.9-5.4-2-8-3.2c-2.3,2-3,5.8-1.9,8.9C216.4,237.4,219.1,239.8,222.2,241.6z"/>
</g>
</svg>
