<?xml version="1.0" encoding="utf-8"?>
<!-- Generator: Adobe Illustrator 23.0.3, SVG Export Plug-In . SVG Version: 6.00 Build 0)  -->
<svg version="1.1" id="Layer_1" xmlns="http://www.w3.org/2000/svg" xmlns:xlink="http://www.w3.org/1999/xlink" x="0px" y="0px"
	 viewBox="0 0 300 300" style="enable-background:new 0 0 300 300;" xml:space="preserve">
<path d="M255.1,249c3.3-13.4,8.7-26.7,9-40.6c0.3-13.7-6.1-26.2-6.6-39.9c-0.5-12,5.9-23.8,3-35.4c-2.4-9.7-7.5-18.1-9.9-28.1
	c-1.2-5.2-4.7-11.6-5-17c-0.2-4.2,3.6-12.2,4.2-16.5c1-9.6,1-22.9-1.2-32.1c-4.9-18.8-34.6-30.4-45.5-9.9c1.7,0.9,15.1,6.3,14.1,9.7
	c-1.4,4.2-12.5,2.4-14.8,1.6c-14.1-6.3-3.1-9.7-2.8-16.3c0.3-8.9-11.1-10.9-21.5-14.2c-12.9-4-25.9-6.8-38.7-1c18.4,0-4.2,5-6.3,7.1
	c-4.7,4.5-3.5,12-10.2,16.2c-8,5-20.8,2.1-28.8,8.5c-3.8,3.1-9.2,10.8-12.3,14.6c-3,3.6-11.8,14.1-8.2,18.9c3.1,4.2,13-17.4,16-20
	c9.6-8.7,20.5-7.8,31.4-12c8.9-3.3,17.4-12.9,26.7-14.4c8.2-1.4,13,1.9,21.7,3.1c14.2,1.7,17-1.4,23.6,13.9c6.4,14.8,0.9,15.6-1,29
	c-0.7,5.6,5.2,15.8,1.9,20.8c-3.6,5.7-17.4,1.2-23.3,7.1c-8.5,8.3-6.9,20.7-6.3,30.4c0.7,8.2,5.6,25.4-4.9,30
	c-8.3,3.8-16.7-8-25.5-3.5c9,4.9,18.1,9,26.1,15.5c-3.5,1.6-6.8,3.6-9.9,5.9c2.4,2.8,5.2,5.2,8.5,6.9c-3.1,8-18.2-6.3-19.8,1.2
	c5,2.1,10.1,4.2,14.9,6.6c-7.6,9.7,6.8,13.4,1.2,26.2c-5.6,12.9-25,12.7-36.6,9c-29-9-39.9-41.2-49.3-66.7c-9,2.3,1,44.5-8,47.4
	c-2.8-4.9-1.6-13.5-6.4-16.8c6.8-3.5-3.3-12.9-5-18.8c-3.8-13-4.2-26.6-8.9-39.8c-8.5,9.4,1,46.5,2.6,58.2c2.1,15.5-0.9,40.5,8.3,53
	c6.6-2.1-1.6-28.7,4.9-28.8c3.5,6.3,3.1,14.8,5.6,21.5c3.6,9.9,6.4,6.4,2.4,18.4c9.7,1.9,10.6,5.7,3.6,12.2c0-6.3-1.9-8.9-5.6-7.8
	c-0.3,11.6-5.2,21.5-6.4,32.7l178.2-3.1c3.1-9.4,4.9-13,10.8-20.1c-18.8-3.5-1.4-6.4,0.3-13.5c1-4.3-8-7.3-3.1-12.2
	C245.5,242.4,251.6,247.8,255.1,249z M51,195c-0.2-0.2-6.8-9.9-2.3-9.4C51.5,187.7,52.4,190.8,51,195z M188.2,209.4
	c-5.9-10.6-1-8.9,5.9-4.7C192.2,206.3,190.1,207.8,188.2,209.4z M207.8,162.8c-0.9,5.2-2.4,16.7-9.6,17.4
	c-5.9,0.5-16.5-17.4-16.3-22.1c0.3-5,12-12.9,12.9-9.7C207.1,148.2,209.9,149.6,207.8,162.8z"/>
<path d="M65.9,155.9c9.2,0.3,7.8-43.9,18.9-47.8c6.3-2.1,21.5,8.5,26.6,11.5c4.9,2.8,10.4,4.7,14.2,9c-0.3-0.3-2.4,5.7-2.4,5.7
	c10.8,6.8,7.1-1,15.3-5.6c9.2-5.2,12.5,2.6,16.2-10.1c3-10.1-6.1-30-17-30c0.5,2.3,1.2,4.5,1.9,6.8c-9.4-0.7-18.8-1.2-28-1.9
	c0.7,1.9,0.3,3.8-1,5.6c-7.1-3.5-22.6-4.9-8-0.5c-14.2,6.1-13.9-2.6-26.9-5.7c-8.3-2.1-10.1-2.4-11.5,6.4c-0.9,6.8,4,17.5,4.2,25.4
	C68.5,135,65,145.3,65.9,155.9z"/>
<path d="M117.1,162c3.1-5.7,11.5-14.1,15.6-19.8c-17.2,0.9-40.6,24.8-30.2,42c3-1.9,9.4-3.3,10.4-3.8c6.4-4.3,3.6-2.6,5-8
	c-1.9-0.7-3.6-1.9-5.2-3.5C113,165.8,114.4,163.5,117.1,162z"/>
</svg>
