<?xml version="1.0" encoding="utf-8"?>
<!-- Generator: Adobe Illustrator 23.0.3, SVG Export Plug-In . SVG Version: 6.00 Build 0)  -->
<svg version="1.1" id="Layer_1" xmlns="http://www.w3.org/2000/svg" xmlns:xlink="http://www.w3.org/1999/xlink" x="0px" y="0px"
	 viewBox="0 0 300 300" style="enable-background:new 0 0 300 300;" xml:space="preserve">
<g>
	<path d="M15.4,114.9c1.2,0.4,2,1.2,2.7,2.3C19.7,113.9,18.7,113.1,15.4,114.9z"/>
	<path d="M131.3,173.3l1.1,0.9c2.7,1.3,4.8,1.6,5.4-2.3l-1.5,0.7l-0.7-1.6l-0.3,0.9l-1.1-0.7l-0.2,0.3l0,0l0.2-0.3
		c-1.5-0.7-2.7-0.4-3.7,1.1l0.5,0.2C130.8,172.7,130.9,173,131.3,173.3z"/>
	<path d="M115.7,163.2c-0.1,0.7-0.5,1-1.1,1c-0.5,0.9-0.5,1.7,0.2,2.5c1.9,0.2,2.8-0.7,2.6-2.6l-0.8-0.2L115.7,163.2z"/>
	<path d="M92.4,127.9c-0.7,1.8-0.6,3.6,0.6,5.4c-0.3,1.1,0.2,2,1.2,2.3c0,0.6-0.2,1-0.8,1.4c1.1,1.6,2.4,1.7,3.9,0.4
		c0.9,2.7,1.1,5.6,0.6,8.7c1-0.1,1.4,0.3,1.4,1c0,1,0.4,1.8,1.2,2.5l1.3-1.1l-0.1,0.5c0.8,0.7,1.5,0.8,2.1,0.1
		c1.2,0.8,2.6,0.6,3.7-0.4c0.4,0.2,0.5,0.6,0.5,1.1l1.3-0.8c0.2,1.1,0.2,2.2-0.2,3.3c3.5,0.3,6.6-0.5,9.6-2.5
		c0.6,0.8,1.4,1.2,2.3,0.9l-0.3,0.8c5.4,3.8,8.5,4.8,15.6,2c3.8,3.4,4.1,0,3.4-4.6c0.1-0.4-0.1-0.7-0.4-0.8c0.8-0.6,1.1-1.4,0.9-2.4
		c1.1-0.8,1.7-2.4,1.6-4c-1.3-0.8-1.1-2.1-0.2-3.4c0.7,0,1.1-0.2,1.1-0.8c4.1-1.7,6.2-4,4.3-7.4c0.1-2.1,0.6-3.7,1.8-5.7
		c0.7,0.3,1.4,0.2,1.8-0.5c8.3-2.1,3.2-8.1-2-13.9l0-0.2l0.1,0c-0.1-0.5-0.2-0.8-0.6-1.4c0.6-0.6,0.7-1.5,0.4-2.2
		c0.8-0.4,1.2-1.2,1.3-2.1c-0.2,0-0.4-0.1-0.5-0.2c0.5-0.1,0.9-0.3,1.2-0.7l-0.2-0.7c1.9-0.1,3.5-0.8,4.7-2.1
		c-0.7-0.6-0.7-1.2,0.1-1.8l-1.5-0.6c7.8-3,4.5-5.4-2.2-7.5c-0.4-1.3-1.2-1.9-2.4-1.1c0.5-1.4,0.1-2.6-1.3-3.1
		c0-1.1-0.7-1.7-1.8-1.5c0.3-0.5,0.2-0.9-0.3-1c0.8-1.8,0.4-2.8-1.5-2.7l-0.2-0.7c-4,5.4-8.5,11.1-12.3,15.5l1,0.7l-0.3,0.1
		c-3.4,0.8-8.2,1.6-12.5,2.2c3.3,6.2-2.6,10-12,11.7c-1.6-0.7-2.2,0.2-1.9,2c-0.8,0.8-1.1,2.2-1,3.4l0.1,0.1
		c-0.4,1.1-0.5,1.2-0.9,1.9c-5.2,0-7.8-1.4-4.9-7.2l-2.1,2.6l-0.2-1.8c-1.3,3.1-2.4,4.7-4.5,6.8c-1.2,1.3-1.7,2.8-1.4,4.4
		C90.2,124.5,90.6,126.5,92.4,127.9z M152.6,97.4l0.4,0.2c-0.3,0.2-0.5,0.2-0.6,0L152.6,97.4z M149.2,89.3l-0.2,0.2l0-0.1
		L149.2,89.3z"/>
	<path d="M92,138.7c0-0.1,0-0.3,0-0.4C91.9,138.4,91.9,138.5,92,138.7z"/>
	<path d="M92,139.1c0-0.1,0-0.3,0-0.5C92,138.8,92,139,92,139.1z"/>
	<path d="M91.9,138.2c0-0.1,0-0.3,0-0.4C91.9,138,91.9,138.1,91.9,138.2z"/>
	<path d="M92,139.5c0-0.1,0-0.2,0-0.4C92,139.3,92,139.4,92,139.5z"/>
	<path d="M92,139.5C92,139.6,92,139.6,92,139.5L92,139.5z"/>
	<path d="M91.9,137.8c0-0.2,0-0.3,0-0.5C91.9,137.5,91.9,137.6,91.9,137.8z"/>
	<path d="M221,146.1c-2.7-1.2-6.2-0.5-8.8,1.5c-4.1,0.8-8.1,0-12.6,0.8c4.3,8.7,6.2,2.1,9.9,1.9c0.7,0.5,1.5,0.6,2.1,0.2
		c0,0.3,0.1,0.5,0.2,0.7c1.4,2.3,3.9,2.1,7,0.7c0.1-0.5,0-1-0.1-1.5c1.9,0.8,4,0.9,5.4,0c2.6,1.3,5.7,2.8,8.6,4l-0.6-1.8
		C231,147.3,226.7,145,221,146.1z"/>
	<path d="M257.6,165.2l-0.5-0.2c-0.4-3.2-1.5-4.4-3.7-1.6l-0.4-0.2c-0.9,0.6-1.3,1.5-0.9,2.3c-0.6,0.2-0.9,0.5-0.8,1.1h-0.5
		c-0.6,4.3-0.1,7.4,4,5.6c1,0.5,1.9,0.2,2.7-0.5c0.8-1.7,0.8-3.1-0.1-4.2C257.2,166.6,257.3,166.1,257.6,165.2z"/>
	<path d="M205.5,176.2c-3.1-0.9-5.8,0.2-7.4,3.3c2.3,0.6,5.8,0.3,8.9-0.8l-0.8-2.5H205.5z"/>
	<path d="M244.1,163.6l-0.4-0.8c-2.3,1.1-2.4,2.7-0.5,4.4v0.2l1.4,0.4c2.1-2.3,2.8-4.7,1.4-6.7C244.9,161.6,244.3,162.5,244.1,163.6
		z"/>
	<path d="M196.8,138.8c-8.5,0.4-9.3,1.3-1.6,2.7c1.2,0.3,2.1,0.4,3.4,0.3c1.7,3.9,2.9,4.7,2.9-0.2c1.5,0,2.5-0.8,2.9-2.3
		c-2.3-0.4-4.6-0.5-7-0.2l-0.2-0.4L196.8,138.8z"/>
	<path d="M209,137c-0.3,0.5-0.6,1.1-0.6,1.6c-0.3,0.4-0.2,0.8,0.2,1.1c4.7,1,8.6,1.1,3.7-3.3l0.4-0.5
		C210.5,134.5,209.1,134.8,209,137z"/>
	<path d="M213.3,134.2l1.4,1.4l-0.8-1.6c1.2,1.3,2.8,1.6,4.7,1c-3.1-2.1-4.9-5-4.9-8.3c3.1,0.5,5.7,1.8,8.2,4.1l-0.6-1.2
		c0.6,0.5,1,1,1.4,1.7c2.3-2.5,0.8-3.6-2.3-3.7l0.1,0.4c-1.1-1.3-1.6-2.3-2.1-3.7c-0.8,0-1.5-0.2-2.2-0.5c3.3-3.8,3.9-6.4-1.6-5
		c0-0.8-0.3-1.5-0.8-2l0.4-0.5l0.4,0.9c4.2-2.8,5.7-5,0.3-4.9v-1.5c-0.1,1.2-0.5,2.2-1.1,3.1c-3.9,1.7-5.7,5.2-5,9.5l0.3-0.1
		c0.6,1.9,1,4.1,1,6.3c-0.1-0.1-0.1-0.1-0.2,0l-0.4-0.2l0.2,0.3l-0.2,0.2C204.9,133.2,207.3,134.4,213.3,134.2z"/>
	<path d="M164.8,188.8c-3.2-2.8-6.9-2.6-10.4,0.5c0.9,1.3,2,2.2,3.3,2.6c0.5-0.3,1-0.2,1.5,0.2l0.2-0.5l0.7,1.1l0.2-0.5
		c0.3,0.5,0.7,0.7,1.3,0.6c3.3,3,5.9,2.7,6.9-1.7C167.3,189.9,166.2,189.1,164.8,188.8z"/>
	<path d="M257,134.2C257,134.1,257,134.1,257,134.2L257,134.2z"/>
	<path d="M257.3,135.7c0,0,0-0.1,0-0.1C257.3,135.7,257.3,135.7,257.3,135.7z"/>
	<path d="M257.3,135.6c0-0.1,0-0.1,0-0.2C257.3,135.5,257.3,135.6,257.3,135.6z"/>
	<path d="M257.1,134.6c0-0.2-0.1-0.4-0.1-0.4C257.1,134.3,257.1,134.4,257.1,134.6z"/>
	<path d="M257.2,135.5c0-0.3-0.1-0.5-0.1-0.7C257.2,135,257.2,135.2,257.2,135.5z"/>
	<path d="M257.1,134.8c0-0.1,0-0.1,0-0.2C257.1,134.7,257.1,134.7,257.1,134.8z"/>
	<path d="M257.3,135.7c0,0.3,0.1,0.7,0.2,1.1C257.4,136.4,257.3,136.1,257.3,135.7z"/>
	<path d="M297,169.5c0.8-6.3-0.4-21.6-1.8-25.4c-0.9-0.9-2.3-1.3-3.6-1.1l-0.2-0.7c-6.7-3.4-14-4.7-20.8-3.1c-3.7-1.3-8-1.6-11.9-1
		c2.1,2.1,5,3.2,8.2,3.4c-2.2,2.3-4.3,4.6-6.6,7.3c-1,0.4-2.1,0.2-2.7-0.7c0.3-0.7,0.3-1.5,0.1-2.3h-1.1c0.1-2.1-0.8-3.1-2.6-2.3
		c-0.6-3.5-0.8-6.8-0.6-10c-6.1-2.7-12.4-3.4-18.7-2.1c1-2.7-0.8-3.8-4-3.8l-0.1-0.1c-1.2,0.4-2.4,0.6-3.6,0.8
		c0,0.8-0.5,1.3-1.3,1.5c1.5,0.5,2.4,1.3,2.5,2.8l0.5,0.1c-0.7,0.6-1.2,1.3-1.7,2.1c0.8,0.6,1.4,0.7,2.2,0.4c0.1,0.1,0,0.2-0.1,0.3
		c0.5,0.4,0.8,0.9,0.9,1.4h-0.4c1.6,0.5,2.9,1.3,3.7,2.4c3.3,1.5,7.2,3.2,11,4.5c-0.3,0.5-0.6,0.9-1.1,1.2c-2.2-1.1-4.4-0.8-6.1,0.9
		l1.6,2.3c1.9-0.3,3.3,0.7,4.2,2.3c-0.5,0.6-0.6,1.3-0.3,2h-0.2c0.6,2.1,1.8,3.2,3.7,2.6c-0.1,2.5,2.1,3.6,6.5,3.2
		c-1.1-2-2.5-3.4-4.3-4.5c0.7-0.6,0.8-1.2,0.6-1.8c0.3,0.5,0.7,0.7,1.2,0.6c0.4,0.4,1,0.7,1.5,0.8c0.5,1,1.4,1.4,2.3,1l0.3,0.4
		l0.3-0.1c7.1,2.4,14.5,5.4,21.6,8.8c0.9,2.3,2.2,4.6,3.7,6.7c-0.4,0.2-0.5,0.5-0.2,0.9l-0.4,0.3c-0.1,0.8,0.2,1.4,0.8,1.8l-0.3,0.2
		l0.2,0.6c-4.2,1.2-6.5,4.6-6.1,8.8c8.9-3.5,16.2-2.1,23,5.1v-17.8l-0.9,0.5c0.3-0.4,0.5-0.9,0.6-1.5L297,169.5z M230.6,132.9
		L230.6,132.9L230.6,132.9L230.6,132.9z M231.1,132.5c0.7-0.5,1.5-0.7,2.2-0.6C232.5,132.1,231.8,132.3,231.1,132.5z M269,141.6
		c-0.1,0.2-0.3,0.3-0.5,0.3v-0.3l-0.5,0c0.7-0.3,1.6-0.5,2.3-0.6l0.1,0.2L269,141.6z"/>
	<path d="M260,134.4c0.5,0.4,1.3,0.8,1.9,0.8c1.5,2.7,3.6,2.8,6.1,0.5c-0.6-0.7-1.4-1.3-2.2-1.5c-1.7-1.7-3.6-2.6-6-2.9
		C258.8,132.5,259,133.5,260,134.4z"/>
	<path d="M223.2,136.9c1.8,1,3.2,0.5,4.2-1.4c-1.1-0.9-2.2-1-3.3-0.4C223.3,135.4,223,136,223.2,136.9z"/>
	<path d="M222.9,140.4c4.2,3.1,6.8,3,6.2-2.3c-1.3-0.1-2.6,0.2-3.7,0.8C224.4,139.2,223.6,139.7,222.9,140.4z"/>
	<path d="M26.6,138.3l-0.6,0.2c1.5,1.3,3.2,2.5,4.7,3.2c0.4-0.9,1-1.7,1.7-2.3h-0.5C29.1,133.8,26.8,131.2,26.6,138.3z"/>
	<path d="M39.4,148.4c-3.1-4.7-7.1-11.3-6.2-3.9l0.8,0.3l-0.4,0.5c0.9,1.1,1.9,2.8,2.7,4.4c0.7,0.5,1.2,0.8,1.9,1.3l1.3-0.9
		C39.1,149.5,39.1,149,39.4,148.4z"/>
	<path d="M167.2,175.7c1.7,0.8,2.9,0.4,3.6-1.4c-0.7-0.4-1.5-0.7-2.3-0.6l0.2-0.2l-0.2,0c0.2-0.5,0-1.1-0.5-1.6
		c-0.8,0.5-1.5,0.4-2.3-0.2c-0.7,1.4-0.4,2.5,0.8,3.2C166.4,175.4,166.6,175.7,167.2,175.7z"/>
	<path d="M159.8,127.9l-2.1-1.2c1.5,1.7,2.2,3.4,2.2,5.4c-2.4,2.2-3.3,5.1-2.7,8.3c-0.6,1.3-1.4,2.9-1.9,4.1
		c-1.9,0.1-2.4,1.6-1.6,3.9l0.3-0.1c-0.4,1.9,0.2,3.5,1.7,4.5c0.6-0.7,1.3-1.1,2.2-1.1c-1.3,6.8-0.7,12,4.2,13.5
		c0.7,0.3,1.3,0.2,1.9-0.3c0,0.2,0.1,0.3,0.3,0.4c-0.3,2.6-0.2,5.4,0.5,8c1.5-8.4,1.5-17.2,0-25.1c0.7-0.6,1.6-1.2,2.5-1.7
		c0.1,0.6,0.3,1.1,0.4,1.6h0.2c-1.6,3.3-0.2,5.8,3.4,7.2c-1.3,2.7-0.7,4.6,2.2,5.2c-0.7,2.7,0.3,4.1,2.9,3.5c5.9,2.6,8-0.2,6.7-7
		l0.4-0.5l-0.1-0.1c1-2.7-0.5-3.3-3-2.5l-0.2-0.8l-0.9-0.1c0.1-0.4-0.2-0.6-0.8-0.7c0.9-0.6,0.9-1.4,0.1-2.2l0.9-1.1
		c-2.2-1.9-4-4.1-5.7-6.8c1.6-1.5,3.4-2.8,5.4-3.9c0.4,1.9,1.8,2.7,3.8,2.7c0.4-0.2,0.7-0.4,1-0.8c1.7,0.1,2.5-0.9,2.4-2.9l-1.4-0.7
		c0.2-4.5-2.2-5.2-6-3c-1.9-0.1-3.5,0.3-4.7,1.1c-2-1.1-3.8,0.1-5.3,2.7v-0.4c-0.5-0.1-1-0.1-1.5,0.1c-3-2.1-4.1-5-2.4-8.6l-0.1-0.1
		c12.1,2.5,23.9,0.2,32.6-8.2l-0.6-0.5l0.1-0.3c-1.8-1.5-3.3-1.2-4.4,0.9c-2.7,3.2-6.4,4.2-10.9,3.1v0.2c-0.3,0-0.5,0.1-0.6,0.4
		c-2.3-1.1-5-1.7-7.6-1.5c-2-2-4.4-2-6.3,0.4c-0.4,0.1-0.7,0.5-0.9,0.9c-1-1.4-2-1.1-2.5,0.5c-1.1,1.1-2.2,2.4-3.1,3.9l0.1,0.3
		l-1-0.6L159.8,127.9z M176.4,158.3l-0.1,0.2l-0.1-0.1L176.4,158.3z M176.2,160l0.1,0.4c-0.1,0-0.2,0.1-0.2,0.2l-0.2-0.3L176.2,160z
		"/>
	<path d="M183.7,160.8c-0.2,2,0.7,3.1,2.7,2.9C187,161.5,186,160.5,183.7,160.8z"/>
	<path d="M15.2,119.4c1.8,1.6,3.4,3.8,4.2,5.6c1,1.3,2.1,1.5,3.2,0.5C23.1,119.9,20.6,117.7,15.2,119.4z"/>
	<path d="M195.7,181.8c-0.1-0.9-0.3-1.7-0.7-2.5c-2.4-0.6-5-0.3-7,0.9l-0.3-0.2l-0.2,0.1c-0.5-0.4-0.9-0.7-1.5-1
		c-0.6,0.6-1.4,0.9-2.1,0.7c-0.6,0-1.2,0-1.9,0c0-0.8-0.5-1.2-1.8-1.3c-0.3,0.5-0.8,0.8-1.4,0.7c-0.1,0.6-0.2,1-0.4,1.4l-0.5-0.2
		l-0.1,0.3l-0.4-0.6c-0.1,0.8-0.5,1.1-1.3,1l0,0.1l-0.3-0.1l0.4-2.9l-2,2.6c-0.9-1.3-1.9-1-2.9,0.4l0.3,0.3l-0.3,0.1
		c-0.3-0.4-0.9-0.7-1.4-0.8l0,0l-0.1,0v-0.4c-1.5,0-2.9-0.3-4.3-0.9l-0.1,0.3l-0.7-0.3c-0.5,0.6-1.1,0.7-1.7,0.4l-0.2,0.3l-0.8-0.3
		v0.7c-0.3,0.3-0.6,0.4-1.3,0.4l0-0.4l-1,0.5l-0.8-1.6v0.5l-0.6-0.8c0.1,0.7-0.1,1.1-0.6,1.3c-1.3-1.6-3.5-1.6-6-0.6
		c-0.3-0.2-0.3-0.5-0.1-0.9c-2.7-1.1-5-0.5-6.1,1.6c-1.1-0.6-2-0.3-2.7,0.6c-1.5-2.1-3.6-2.4-5.7-1.3c-0.4,0.9-0.6,1.7-0.6,2.6
		l-0.9,0.2c-0.4-3.5-3.4-4.5-7.3-3.8c-0.1-1.4-0.9-2.4-2.2-2.9l-0.4,0.2c-2.4,0.4-5.6-0.1-7.7-1.2c1.2-0.2,2.3,0,3.2,0.6
		c2.2-0.9,4.8-1.6,7-1.8c-0.3-1.2-1.1-1.9-2.1-1.7c-2.7-1.4-6.5-1.7-9.8-0.8v-1.1l-0.8,0.4l-1.6-1.4l0.2,1.7c-0.6,0-1,0.1-1.4,0.2
		c-1.3-0.5-2.5-1.1-4-2c-1.9-0.9-4-1-7,0.2c0.3,0.2,0.5,0.4,0.5,0.8l-1.8-0.5c1,0.5,1.4,1.1,1.2,1.8c-0.5-0.5-1-0.8-1.9-0.7
		c-1.1,0.9-2.4,0.5-3.5-0.7c-1.3,1.5-2.2,1.4-2.3-0.9l-1.1,1.3v-0.2h-0.4l-1.4-3.6l-0.1,2.6c-0.8-0.6-1.4-1.4-1.9-2.3
		c-1,0.4-2.1,0.2-2.8-0.5c-0.4,0.4-0.9,0.5-1.4,0.1l0.3,0.3c-2-1.6-4.1-1.9-5.9-0.6l-0.6-0.7c-0.3,0.1-0.6,0.2-0.9,0.1v-0.1
		c-0.7,0.3-1.2,0-1.4-0.7l-0.5,0.5c-0.2-0.2-0.4-0.2-0.6,0c-0.3-0.6-0.8-0.8-1.5-0.4c0.2-2.4,0.5-4.7,1-6.9c-0.4-2.3-0.8-4.7-1-6.5
		c1.2-1,1.8-2.1,1.4-3.6c1,1.3,2.3,1.8,3.9,1c1.8-0.9,1.9-2,0-3l1.9-1c-4-5.9-8.3-8.8-13.6-4.3c-1.9-1.7-3.2-4.2-3.6-6.7
		c1.2-0.3,1.9-1.1,2.2-2.4l0.5,0.3l0.2-0.2l0.9,0.4c0-0.6,0.4-0.8,1-0.6l-0.2-2c-0.9,0.2-1.5-0.2-1.7-1.3l0,0
		c-0.7-1.1-1.8-2.1-3-2.8c0.4-0.6,1-0.9,1.8-0.8l-0.1-0.1l0.3,0.1c0.8-0.8,1.2-1.8,1.3-2.9h-0.5c-0.9-1.9-2.5-2.4-4.4-1.9
		c-0.5,0.3-1.1,0.4-1.8,0.4v0.1l-1-0.5c0,0.9-0.2,1.4-0.6,2h-0.2c-0.1-0.9-0.6-1.7-1.4-2.3l-0.3,0.7l-0.5-0.2v0.7
		c-0.8,0.3-2.1,0.2-3.3-0.2c-0.5-2.5-2.3-3.4-4.8-2.8l-0.2-0.1c-0.2-2.8-2-3.9-4-4.2c-1.5-0.5-3-0.4-4.2,0.5
		c-1.1-1.3-1.7-2.9-1.8-4.7l-0.3,1.4h-0.6c-1.8-2.7-4.9-5.1-8.2-6.4C23,96.1,14.5,92.3,3.9,92.5c0,1.2,0,2.1-0.2,3.2l0.7,0.5
		c2.1,4.4,6,8.1,10.2,9.6c2.8,4.9,5.8,8.2,10.3,10.9c2.9,3.4,4.9,7.8-0.2,10.5l0.1,0.3l-2.6,1c2.4,1.3,2.6,2.5-0.5,3.4l2.1,0.7v0.9
		l0.6-0.6v0.3c0.6-0.1,1,0.1,1.3,0.8c0.6-0.8,0.9-1.5,1.2-2.3l0.6-0.8c-0.1-0.7-0.3-1.2-0.7-1.8c0.1-0.1,0.3-0.1,0.5,0v0.1l2.6-0.6
		c-0.5-0.3-0.7-0.6-0.5-1c0.5,0.5,0.9,0.6,1.4,0.3c0.6,0.2,1.5,0.6,2.1,1l-0.1,0.7c1.5,1.4,3.1,3.5,3.8,5.1c0.3,0.7,0.5,1.4,0.3,2.2
		l1,0.2l-0.2,0.2c1.6,2.3,2.3,3.9,3,6.3l-0.2,0.2c0.7,0.3,1.1,0.9,1.2,1.6l0.2-0.2c1.6,1.7,3.4,3.8,4.9,5.5c2.6,1.6,4.4,3.2,6.3,5.9
		l-0.2,0.5c1.8,0.8,3.3,1.8,4.7,2.9c1,0.4,1.7,1.1,2,2.2c0.7,0.4,1.5,1,2.2,1.7l-0.3,0.4c1.9,2.2,3.9,3.2,5.1,0.9
		c1.1,1.3,2.2,1.3,3.2,0c0.2,0.5,0.7,1,1.2,1.3c0.2,0.6,0,1.1-0.8,1.3l1.5-0.4c-0.3,0.8-0.7,1.5-1.4,2.1l-0.2-0.5l-0.2,0.1
		c-0.6-0.7-1.3-0.7-2.2-0.3c-0.3,0.6-0.6,1.1-0.9,1.8c0.8,0.3,1.2,0.9,1.1,1.8l1,0.2v0.1c1.8-0.1,3.5,0,5.3,0.2
		c0.1,0.2,0.4,0.5,0.6,0.6v0.1h0.5c-0.1,0.9-0.1,1.9,0,2.9c5.4,0.7,10.5,1.4,15.7,2.1c0.7-0.5,1.6-0.3,2.5,0.2
		c2.8-0.3,7.1,0.7,10.4,2.5v0.9c1.1-0.5,2.5-0.6,3.9-0.3l-0.3,0.3c1.5,0.3,2.8,0.3,4.3,0l-0.1-0.1c2.5,0.9,5,0.9,7.2-0.1
		c1,0.8,2.2,1.3,3.9,1.8c0.9,0.1,1.9,0.3,3,0.4l0.1,0.5c2.3,0.7,3.6,0.3,3-2.1c0.7,0.1,1.3,0.5,1.8,1.1l-0.6,0.5
		c0.8,1.1,1.4,1.5,2.6,1.9c0.1-0.5,0.3-1,0.6-1.5c0.5,0.5,1.1,0.8,1.8,0.7l0.4-0.7c0.9,0.9,2.1,1.3,3.4,1.1c0.3,0.6,0.9,0.7,1.8,0.3
		v-0.5l0.2-0.1c0.5,0.6,1.2,1.1,2.1,1.3l0.1-0.1c2.9-0.2,5.9-0.6,8.6-1.4c1.7,0.4,3.7,0.3,5.3-0.4c0.1,0.1,0.2,0.1,0.3,0v1.4
		c0.7-1.4,1.5-1.7,2.3-0.7c0.6-0.3,1.2-0.3,1.8,0.1v-0.2c1.2-0.2,2.2-0.1,3.3,0.3c2.5,0.3,5.1,0.2,7.5-0.3c4.3-1.4,8.2-0.9,11.8,1.7
		l-2.6-3.2c0.6-0.9,1.2-1,1.9,0.1l0.3-0.4c1.3,0.3,2.5-0.1,3.3-0.8l0,0c1.3,0.7,2.5,0.6,3.8,0.1c1.3-0.3,2.7-0.5,4.1-0.6
		c-0.5,1.5-1.5,2.4-3.1,2.6c-0.2,0.8-0.7,0.9-1.6,0.5v0.4c-1.3,0.4-2.3,0.9-3.4,1.6l0,0c-0.8,0.6-1.4,1.5-1.7,2.3l-0.7,0.3l0.4,0.7
		c-0.4,0.2-0.5,0.6-0.4,1l-1.1,0.4v0.2l-0.1,0c-0.6,0.6-0.8,1.4-0.3,2.1c-0.1,0.3-0.4,0.4-0.7,0.3c-2.6,1.2-3.7,2.7-0.8,4.8l0.2-0.6
		c0.4-0.3,0.9-0.5,1.3-0.3c0.2-0.4,0.4-0.4,0.8-0.2c1.1-2.4,2.9-3.7,5.8-4.5c8.8-4,16.7-10.6,17.6-13.7c-4.1,0.8-7.7,1.4-12.2,2
		L195.7,181.8z M60.9,124.9l0.2,0L60.9,124.9L60.9,124.9z M60.2,125.2l0.3,0.4l0.3-0.6l0.6,0.9l-0.5-0.2c1.3,1.3,1.7,2.8,1,4.5h-0.4
		c0.1,0.4,0,0.8-0.1,1.2l-1.5-2.1l0.9-0.4c0-1.1-0.4-2.2-1-3.1L60.2,125.2z M58.7,124.3l0.5,1C58.5,125.1,58.4,124.8,58.7,124.3z
		 M58.2,121.9L58.2,121.9L58.2,121.9L58.2,121.9z M62.2,134.1l-0.9-0.3l0.2-0.9c-1.3,0.9-2.4,0.6-3.3-0.5c0.8-1.1,1.8-1.3,3.1-0.7
		c0.4,0.6,0.8,1.5,1.2,2.2L62.2,134.1z M135.3,183.3l-0.1-0.1l0.2-0.2L135.3,183.3z"/>
</g>
</svg>
