<?xml version="1.0" encoding="utf-8"?>
<!-- Generator: Adobe Illustrator 23.0.3, SVG Export Plug-In . SVG Version: 6.00 Build 0)  -->
<svg version="1.1" id="Layer_1" xmlns="http://www.w3.org/2000/svg" xmlns:xlink="http://www.w3.org/1999/xlink" x="0px" y="0px"
	 viewBox="0 0 300 300" style="enable-background:new 0 0 300 300;" xml:space="preserve">
<style type="text/css">
	.st0{fill:none;stroke:#000000;stroke-miterlimit:10;}
</style>
<path class="st0" d="M278.5,138.9c-4.6-7.5-18.4-2.6-25.6,0.1c-8.6,3.3-9,5.4-21.2,5.4c17.1-26.3-39.4-30.8-29.6,0
	c-8.8,0-17.6,0-26.5,0c13.2-20.4-19.3-29.6-29.3-12.3c-4.1,7.1,1.5,17.1-11.9,12.3c-11.9-4.2,2.8,8.5-5.9-8.2
	c-1.3-2.5-2.5-19-7.7-16c-0.5,0.3,4.6,20.9,4.3,24.2c-6.5,0-12.9,0-19.4,0c0-11.5-3-20.3,5.4-24.5c3.7-1.8,28.5,3.3,28.5-1.7
	c0-8.9-33.9,8.8-33.8-10.1c7.9,1.6,11.5,0.2,18.7-3.8c4.2-2.3,6.8-6.8,10.3-9c1.8-1.1,11.6,2.2,11.6-1.7c0-3.2-12.7-1.7-13.7-1.7
	c3.3-10.8-3.6-10.7-10.4-11.4c-9.2-1-13,2.8-20.6,6.5c-1.9,0.9-14,8.5-14,6.6c2.2,3.1,5.6,3.7,10,1.7c-0.7,3-0.3,5.9,1.2,8.8
	c3.9,16.4-12.4,9-12.4,14.1c2.8,3.7,6.9,4.3,12.4,1.7c0,10.2,2.9,20.4-4.4,24.5c-4.4,2.5-18.7,0-23.4,0c-14.5,0-29,0-43.6,0
	c0-11.5-3-20.3,5.4-24.5c3.7-1.8,28.5,3.3,28.5-1.7c0-8.9-33.9,8.8-33.8-10.1c7.9,1.6,11.5,0.2,18.7-3.8c4.2-2.3,6.8-6.8,10.3-9
	c1.8-1.1,11.6,2.2,11.6-1.7c0-3.2-12.7-1.7-13.7-1.7c3.3-10.8-3.6-10.7-10.4-11.4c-9.2-1-13,2.8-20.6,6.5c-1.9,0.9-14,8.5-14,6.6
	c2.2,3.1,5.6,3.7,10,1.7c-0.7,3-0.3,5.9,1.2,8.8c3.9,16.4-12.4,9-12.4,14.1c2.8,3.7,6.9,4.3,12.4,1.7c0,2.9,2.4,22.3-0.1,24.5
	c-1.3,1.1-12.1-1.3-12.4,0c-1.7,6.6,4.6,4.1,12.4,4.1c0,11.5-1.5,24-0.1,35.3c0.5,3.7,0.9,18.9,7,8.8c8.4-14-9.9-37.6,6-44.2
	c16-6.6,47.7,0,65.4,0c0,7.7-4.5,39.1-0.1,44.2c6.6,7.6,3.9-0.7,7-5.5c5.6-8.7,20.2-47.3,35.5-38.6c7.1,4,3.8,23.9,3.8,33.9
	c0,7-4.2,41.6,0.9,45.1c9.6,6.7,6.1-21,6.1-25.6c0-17.7,0-35.3,0-53c10.8,2.3,24.5-0.5,35.9-0.5c2.6,0,14.4-1.7,16.3,0
	c3.8,3.4,0.5,33.2,0.5,38.8c0,8.3-4.3,32,0,38.8c7.7,12.3,6.7-12.6,7-15.6c1.3-12,5.6-20,11.5-30.3c0.6-1,13.9-28.4,5.6-26.2
	c2.4-0.7-16,37-17.1,39.8c0-14.8,0-29.5,0-44.3c7.7,1.1,22.3-4.6,29.7-1.1c10.7,5.1,5.2,44.2,5.1,58.7c-0.1,8.2-2.4,57.4,6.6,32
	c7.4-20.9,0.5-57.4,0.3-79.7c10.2,3,19.8-4.3,25.2-11.1c2.1-2.6,10.7-2.2-0.3-4.1C278.2,142.6,278.4,140.8,278.5,138.9z
	 M115.9,164.2c-3.6,3.5-7,7.3-10.3,11.2c0-8.5-2.5-23.4,3.2-26.8c2.9-1.8,12,0,15.6,0C122.9,154.5,120.1,159.8,115.9,164.2z"/>
</svg>
