<?xml version="1.0" encoding="utf-8"?>
<!-- Generator: Adobe Illustrator 23.0.3, SVG Export Plug-In . SVG Version: 6.00 Build 0)  -->
<svg version="1.1" id="Layer_1" xmlns="http://www.w3.org/2000/svg" xmlns:xlink="http://www.w3.org/1999/xlink" x="0px" y="0px"
	 viewBox="0 0 300 300" style="enable-background:new 0 0 300 300;" xml:space="preserve">
<path d="M287.7,106.9c-1.9,0.3-3.9,0.5-5.8,0.8c-1.4,0.2-2.5,1.1-3.3,2.3c-17.5,6.1-34.6,13.2-51.4,21c-0.2,0-0.3,0-0.5,0
	c-11.4,1.6-22.7,3.6-34,5.8c0.3-1.6,0.6-3.3,0.9-4.9c1-5.8-5.4-10.1-10-5.8c-2.2,2-4.5,4.4-7.4,5.4c-1.2,0.4-5,0.4-4.5-1.3
	c1.4-5.6-5.8-10.4-10-5.8c-0.2,0.2-0.4,0.4-0.6,0.6c0-0.2,0-0.4,0-0.5c-0.3-4.3-5-7.8-9-5.2c-3.4,2.2-6.9,4.1-10.5,5.8
	c0-0.2,0-0.4,0-0.6c0.1-5.4-6.6-7.7-10.2-4.2c-1.3,1.2-2.7,2.3-4.1,3.4c0,0,0-0.1,0-0.1c0.3-4.3-5.5-7.9-9-5.2c0,0-0.1,0.1-0.1,0.1
	c6.7-12.5,13.4-24.9,20.1-37.4c2.3-4.2-1.6-10.7-6.8-8.8c-4.8,1.8-9.7,3.6-14.5,5.4c1-2.2,1.7-4.5,1.7-6.9c0-4.8-5-7.1-9-5.2
	c-4.1,1.9-8.2,3.8-12.2,5.7c0.5-0.8,0.9-1.6,1.4-2.5c2.1-3.6-0.5-9.6-5.2-9c-18.7,2.2-36.9,6.6-54.4,13.7c-7.1,2.9-4,14.5,3.2,11.6
	c12.9-5.2,26.2-9.1,39.8-11.6c-1.3,2.2-2.6,4.5-3.8,6.7c-0.5,0.2-0.9,0.4-1.4,0.7c-3.1,1.4-3.6,4.2-2.7,6.7
	c-21.6,38.8-41.1,78.8-58.4,119.8c-1.3,3-0.9,6.4,2.2,8.2c2.5,1.5,6.9,0.8,8.2-2.2c17.9-42.4,38.2-83.8,60.8-124
	c3.5-1.6,7-3.3,10.5-4.9c-1,1.4-2,2.8-3,4.2c-4.4,6.3-8.6,12.7-12.7,19.2c-8.1,13-15.7,26.4-22.6,40.1c-3.5,6.9,6.9,13,10.4,6.1
	c7.5-14.8,15.7-29.2,24.6-43.2c3.5-5.5,7.1-11,10.9-16.4c0.6,0,1.3-0.1,1.9-0.4c4.4-1.6,8.9-3.3,13.3-4.9
	c-8.5,15.8-17,31.7-25.5,47.5c-2.6,4.8,3.1,12.1,8.2,8.2c3.8-2.9,7.6-5.8,11.5-8.7c0.7,3.9,5.6,5.4,9,3.8c2.2-1,4.3-2.2,6.4-3.5
	c1.2,2.6,4.2,4.4,7.1,3.4c4.4-1.5,8.7-3.3,12.8-5.3c0.4,2.8,2.8,5.8,5.9,5.5c2.5-0.3,4.8-0.8,6.9-1.7c1.3,1.7,3.1,3.1,5.1,4.1
	c-34.3,8.1-68,18.9-100.7,32.3c-7.1,2.9-4,14.5,3.2,11.6c34.8-14.2,70.7-25.5,107.4-33.8c-0.3,1.3-0.6,2.5-0.9,3.8
	c-17,8.8-34,17.9-50.5,27.6c-12.4,7.2-25.2,14.9-35.6,24.8c-4,3.8-9.2,8.9-10.6,14.3c-1.6,5.9,2.3,10.9,7.6,13
	c12.2,4.8,27.8,0.1,40-2.6c12.5-2.8,24.9-7.2,34.6-15.9c10.6-9.5,16.4-23.1,20.5-36.5c1.7-5.4,3.1-10.9,4.5-16.5
	c7.6-4,15.3-7.9,23-11.7c10.5-5.2,21.1-10.3,31.8-15c0.8,2,2.6,3.5,5.3,3.5c5,0,10,0,15,0c7.7,0,7.7-12,0-12c0,0-0.1,0-0.1,0
	c9.6-3.8,19.2-7.3,29.1-10.5C298.4,116.1,295.1,105.9,287.7,106.9z M91.7,224.6C91.7,224.6,91.6,224.6,91.7,224.6
	C90.5,224,90.6,224,91.7,224.6z M161.4,199.2c-6,9.4-15,15.6-25.5,19.1c-10.7,3.6-22.8,6.3-34,7.1c-3,0.2-6.2,0.3-9.1-0.5
	c-0.2-0.1-0.5-0.1-0.7-0.2c0.7-0.8,1.4-2,2.1-2.8c4-4.9,9-9,14.1-12.7c10.7-7.7,22.1-14.4,33.6-20.8c10.2-5.6,20.4-11.1,30.6-16.6
	C169.9,181.3,166.8,190.8,161.4,199.2z"/>
</svg>
