<?xml version="1.0" encoding="utf-8"?>
<!-- Generator: Adobe Illustrator 23.0.4, SVG Export Plug-In . SVG Version: 6.00 Build 0)  -->
<svg version="1.1" id="Layer_1" xmlns="http://www.w3.org/2000/svg" xmlns:xlink="http://www.w3.org/1999/xlink" x="0px" y="0px"
	 viewBox="0 0 191 91" style="enable-background:new 0 0 191 91;" xml:space="preserve">
<g>
	<path d="M45,24h-6.1v1.7l6.1,0.5c0.1,5.4,0.1,10.8,0.1,16.1H22.9c0-5.4,0-10.8,0.1-16.1l6.1-0.5V24H23h-3.6h-6.1v1.7l6.1,0.5
		c0.1,5.4,0.1,10.9,0.1,16.4v3.2c0,5.5,0,11-0.1,16.4l-6.1,0.5v1.7h6.1H23h6.1v-1.7L23,62.2c-0.1-5.4-0.1-11-0.1-18h22.3
		c0,7.1,0,12.7-0.1,18l-6.1,0.5v1.7H45h3.6h6.1v-1.7l-6.1-0.5c-0.1-5.4-0.1-10.9-0.1-16.4v-3.2c0-5.5,0-11,0.1-16.4l6.1-0.5V24h-6.1
		H45z"/>
	<path d="M83.2,46.6c0-6.4-4.3-11.2-10.9-11.2c-7,0-13.1,5.8-13.1,15c0,9.9,6.1,14.9,13.3,14.9c4.5,0,8.3-2.1,10.6-5.6l-1-0.8
		c-2.3,2.5-5.2,4-9,4c-5.8,0-10.6-4-10.7-12.8l20.5,0C83.1,49.1,83.2,48,83.2,46.6z M78.1,48.2l-15.6,0c0.5-6.7,4.7-11,9.7-11
		c5,0,8,4,8,8.4C80.2,47.3,79.7,48.2,78.1,48.2z"/>
	<path d="M96,51.8V28.8l0.2-8.5l-0.8-0.5l-7.5,1.5v1.6l5.3,0.2v28.7c0,3.2,0,7.2-0.1,10.5l-5.5,0.6v1.6h5.5h3.3h5.3v-1.6l-5.4-0.6
		C96.1,59.1,96,55,96,51.8z"/>
	<path d="M114,51.8V28.8l0.2-8.5l-0.8-0.5l-7.5,1.5v1.6l5.3,0.2v28.7c0,3.2,0,7.2-0.1,10.5l-5.5,0.6v1.6h5.5h3.3h5.3v-1.6l-5.4-0.6
		C114.1,59.1,114,55,114,51.8z"/>
	<path d="M137.7,35.4c-6.6,0-13.3,4.9-13.3,15s6.7,14.8,13.3,14.8c6.6,0,13.3-4.7,13.3-14.8S144.3,35.4,137.7,35.4z M137.7,63.4
		c-6.1,0-10-4.7-10-13s3.8-13.2,10-13.2c6.1,0,10,4.9,10,13.2S143.8,63.4,137.7,63.4z"/>
	<path d="M161.2,53.1h1.4l0.5-11.9c0.4-7.9,0.8-12.9,0.8-15.8c0-1.7-0.8-2.5-2-2.5c-1.3,0-2,0.8-2,2.5c0,3,0.4,7.9,0.8,15.8
		L161.2,53.1z"/>
	<path d="M161.9,59.9c-1.5,0-2.6,1.2-2.6,2.6c0,1.4,1.1,2.6,2.6,2.6s2.6-1.2,2.6-2.6C164.6,61.1,163.5,59.9,161.9,59.9z"/>
</g>
</svg>
